<svg width="38" height="38" viewBox="0 0 38 38" fill="none" xmlns="http://www.w3.org/2000/svg">
<path d="M31.3867 19.2979C31.3867 19.8832 30.9517 20.367 30.3874 20.4435L30.2305 20.4541L7.10547 20.4541C6.46689 20.4541 5.94922 19.9364 5.94922 19.2978C5.94922 18.7125 6.38421 18.2287 6.94857 18.1522L7.10547 18.1416L30.2305 18.1416C30.869 18.1416 31.3867 18.6593 31.3867 19.2979Z" fill="black"/>
<path d="M17.248 27.7661C17.7005 28.2167 17.702 28.9487 17.2515 29.4013C16.8419 29.8126 16.1996 29.8513 15.7462 29.5165L15.6163 29.4048L6.28922 20.1178C5.87661 19.7069 5.83907 19.0624 6.17663 18.609L6.28915 18.4791L15.6162 9.1906C16.0687 8.74 16.8008 8.74151 17.2514 9.19399C17.6611 9.60533 17.697 10.2478 17.3602 10.6997L17.248 10.8292L8.74414 19.2989L17.248 27.7661Z" fill="black"/>
</svg>
