<svg width="390" height="844" viewBox="0 0 390 844" fill="none" xmlns="http://www.w3.org/2000/svg">
<g clip-path="url(#clip0_324_822)">
<rect width="390" height="844" fill="#E3EEDE"/>
<rect x="143.5" y="699.5" width="105" height="21" rx="10.5" stroke="white"/>
<path d="M162.639 709.219H161.395C161.372 709.058 161.326 708.915 161.256 708.79C161.186 708.663 161.096 708.555 160.986 708.466C160.876 708.377 160.749 708.309 160.605 708.261C160.463 708.214 160.309 708.19 160.142 708.19C159.841 708.19 159.579 708.265 159.355 708.415C159.132 708.562 158.958 708.778 158.835 709.062C158.712 709.345 158.651 709.687 158.651 710.091C158.651 710.506 158.712 710.854 158.835 711.136C158.96 711.419 159.134 711.632 159.358 711.776C159.581 711.92 159.84 711.991 160.134 711.991C160.298 711.991 160.451 711.97 160.591 711.926C160.733 711.883 160.859 711.819 160.969 711.736C161.079 711.651 161.17 711.547 161.241 711.426C161.315 711.305 161.366 711.167 161.395 711.011L162.639 711.017C162.607 711.284 162.527 711.542 162.398 711.79C162.271 712.036 162.099 712.257 161.884 712.452C161.67 712.645 161.414 712.798 161.116 712.912C160.821 713.024 160.487 713.08 160.114 713.08C159.595 713.08 159.131 712.962 158.722 712.727C158.314 712.492 157.992 712.152 157.756 711.707C157.521 711.262 157.403 710.723 157.403 710.091C157.403 709.456 157.523 708.917 157.761 708.472C158 708.027 158.324 707.687 158.733 707.455C159.142 707.22 159.602 707.102 160.114 707.102C160.451 707.102 160.763 707.15 161.051 707.244C161.341 707.339 161.598 707.477 161.821 707.659C162.045 707.839 162.226 708.06 162.366 708.321C162.509 708.582 162.599 708.882 162.639 709.219ZM163.521 713V707.182H165.817C166.256 707.182 166.631 707.26 166.942 707.418C167.254 707.573 167.492 707.794 167.655 708.08C167.82 708.364 167.902 708.698 167.902 709.082C167.902 709.469 167.819 709.801 167.652 710.08C167.485 710.356 167.244 710.568 166.928 710.716C166.613 710.864 166.232 710.938 165.786 710.938H164.249V709.949H165.587C165.821 709.949 166.017 709.917 166.172 709.852C166.327 709.788 166.443 709.691 166.518 709.562C166.596 709.434 166.635 709.274 166.635 709.082C166.635 708.889 166.596 708.726 166.518 708.594C166.443 708.461 166.326 708.361 166.169 708.293C166.014 708.223 165.818 708.188 165.581 708.188H164.751V713H163.521ZM166.663 710.352L168.109 713H166.751L165.337 710.352H166.663ZM168.771 713V707.182H172.692V708.196H170.001V709.582H172.49V710.597H170.001V711.986H172.703V713H168.771ZM174.673 713H173.354L175.363 707.182H176.948L178.954 713H177.636L176.178 708.511H176.133L174.673 713ZM174.59 710.713H177.704V711.673H174.59V710.713ZM178.722 708.196V707.182H183.5V708.196H181.719V713H180.503V708.196H178.722ZM184.287 713V707.182H188.207V708.196H185.517V709.582H188.006V710.597H185.517V711.986H188.219V713H184.287ZM192.04 713H190.722L192.73 707.182H194.315L196.321 713H195.003L193.545 708.511H193.5L192.04 713ZM191.957 710.713H195.071V711.673H191.957V710.713ZM201.881 709.219H200.637C200.614 709.058 200.568 708.915 200.498 708.79C200.428 708.663 200.338 708.555 200.228 708.466C200.118 708.377 199.991 708.309 199.847 708.261C199.705 708.214 199.551 708.19 199.384 708.19C199.083 708.19 198.821 708.265 198.597 708.415C198.374 708.562 198.201 708.778 198.077 709.062C197.954 709.345 197.893 709.687 197.893 710.091C197.893 710.506 197.954 710.854 198.077 711.136C198.202 711.419 198.377 711.632 198.6 711.776C198.824 711.92 199.082 711.991 199.376 711.991C199.54 711.991 199.693 711.97 199.833 711.926C199.975 711.883 200.101 711.819 200.211 711.736C200.321 711.651 200.412 711.547 200.484 711.426C200.558 711.305 200.609 711.167 200.637 711.011L201.881 711.017C201.849 711.284 201.769 711.542 201.64 711.79C201.513 712.036 201.342 712.257 201.126 712.452C200.912 712.645 200.656 712.798 200.359 712.912C200.063 713.024 199.729 713.08 199.356 713.08C198.837 713.08 198.373 712.962 197.964 712.727C197.557 712.492 197.235 712.152 196.998 711.707C196.763 711.262 196.646 710.723 196.646 710.091C196.646 709.456 196.765 708.917 197.004 708.472C197.242 708.027 197.566 707.687 197.975 707.455C198.384 707.22 198.844 707.102 199.356 707.102C199.693 707.102 200.005 707.15 200.293 707.244C200.583 707.339 200.84 707.477 201.063 707.659C201.287 707.839 201.469 708.06 201.609 708.321C201.751 708.582 201.842 708.882 201.881 709.219ZM207.897 709.219H206.653C206.63 709.058 206.584 708.915 206.513 708.79C206.443 708.663 206.353 708.555 206.244 708.466C206.134 708.377 206.007 708.309 205.863 708.261C205.721 708.214 205.567 708.19 205.4 708.19C205.099 708.19 204.836 708.265 204.613 708.415C204.389 708.562 204.216 708.778 204.093 709.062C203.97 709.345 203.908 709.687 203.908 710.091C203.908 710.506 203.97 710.854 204.093 711.136C204.218 711.419 204.392 711.632 204.616 711.776C204.839 711.92 205.098 711.991 205.391 711.991C205.556 711.991 205.709 711.97 205.849 711.926C205.991 711.883 206.117 711.819 206.227 711.736C206.336 711.651 206.427 711.547 206.499 711.426C206.573 711.305 206.624 711.167 206.653 711.011L207.897 711.017C207.865 711.284 207.784 711.542 207.656 711.79C207.529 712.036 207.357 712.257 207.141 712.452C206.927 712.645 206.672 712.798 206.374 712.912C206.079 713.024 205.745 713.08 205.371 713.08C204.853 713.08 204.388 712.962 203.979 712.727C203.572 712.492 203.25 712.152 203.013 711.707C202.779 711.262 202.661 710.723 202.661 710.091C202.661 709.456 202.781 708.917 203.019 708.472C203.258 708.027 203.582 707.687 203.991 707.455C204.4 707.22 204.86 707.102 205.371 707.102C205.709 707.102 206.021 707.15 206.309 707.244C206.599 707.339 206.855 707.477 207.079 707.659C207.302 707.839 207.484 708.06 207.624 708.321C207.766 708.582 207.857 708.882 207.897 709.219ZM214.126 710.091C214.126 710.725 214.005 711.265 213.765 711.71C213.526 712.155 213.201 712.495 212.788 712.73C212.377 712.963 211.915 713.08 211.401 713.08C210.884 713.08 210.42 712.962 210.009 712.727C209.598 712.492 209.273 712.152 209.035 711.707C208.796 711.262 208.677 710.723 208.677 710.091C208.677 709.456 208.796 708.917 209.035 708.472C209.273 708.027 209.598 707.687 210.009 707.455C210.42 707.22 210.884 707.102 211.401 707.102C211.915 707.102 212.377 707.22 212.788 707.455C213.201 707.687 213.526 708.027 213.765 708.472C214.005 708.917 214.126 709.456 214.126 710.091ZM212.879 710.091C212.879 709.68 212.817 709.333 212.694 709.051C212.573 708.769 212.401 708.555 212.18 708.409C211.958 708.263 211.699 708.19 211.401 708.19C211.104 708.19 210.844 708.263 210.623 708.409C210.401 708.555 210.229 708.769 210.106 709.051C209.985 709.333 209.924 709.68 209.924 710.091C209.924 710.502 209.985 710.848 210.106 711.131C210.229 711.413 210.401 711.627 210.623 711.773C210.844 711.919 211.104 711.991 211.401 711.991C211.699 711.991 211.958 711.919 212.18 711.773C212.401 711.627 212.573 711.413 212.694 711.131C212.817 710.848 212.879 710.502 212.879 710.091ZM218.631 707.182H219.861V710.96C219.861 711.384 219.759 711.756 219.557 712.074C219.356 712.392 219.075 712.64 218.713 712.818C218.351 712.994 217.93 713.082 217.449 713.082C216.966 713.082 216.544 712.994 216.182 712.818C215.82 712.64 215.539 712.392 215.338 712.074C215.137 711.756 215.037 711.384 215.037 710.96V707.182H216.267V710.855C216.267 711.077 216.315 711.274 216.412 711.446C216.51 711.618 216.649 711.754 216.827 711.852C217.005 711.951 217.212 712 217.449 712C217.688 712 217.895 711.951 218.071 711.852C218.249 711.754 218.386 711.618 218.483 711.446C218.581 711.274 218.631 711.077 218.631 710.855V707.182ZM225.739 707.182V713H224.677L222.146 709.338H222.103V713H220.873V707.182H221.952L224.464 710.841H224.515V707.182H225.739ZM226.534 708.196V707.182H231.312V708.196H229.531V713H228.315V708.196H226.534Z" fill="white"/>
<g filter="url(#filter0_i_324_822)">
<circle cx="195" cy="625.5" r="367.741" fill="#4AA18B"/>
</g>
<path fill-rule="evenodd" clip-rule="evenodd" d="M86.4229 491.2C86.0089 491.2 85.6729 490.864 85.6729 490.45V488.303C85.6729 486.207 83.9679 484.502 81.8719 484.502H81.8559C80.8429 484.502 79.8939 484.892 79.1769 485.603C78.4549 486.317 78.0559 487.27 78.0519 488.286V490.45C78.0519 490.864 77.7159 491.2 77.3019 491.2C76.8879 491.2 76.5519 490.864 76.5519 490.45V488.303C76.5579 486.863 77.1149 485.534 78.1199 484.538C79.1259 483.541 80.4539 482.964 81.8749 483.002C84.7949 483.002 87.1729 485.38 87.1729 488.303V490.45C87.1729 490.864 86.8369 491.2 86.4229 491.2" fill="#4AA18B"/>
<path fill-rule="evenodd" clip-rule="evenodd" d="M78.042 491.129C76.364 491.129 75 492.493 75 494.171V498.46C75 500.138 76.364 501.502 78.042 501.502H85.683C87.36 501.502 88.725 500.138 88.725 498.46V494.171C88.725 492.493 87.36 491.129 85.683 491.129H78.042ZM85.683 503.002H78.042C75.537 503.002 73.5 500.965 73.5 498.46V494.171C73.5 491.666 75.537 489.629 78.042 489.629H85.683C88.188 489.629 90.225 491.666 90.225 494.171V498.46C90.225 500.965 88.188 503.002 85.683 503.002V503.002Z" fill="#4AA18B"/>
<path fill-rule="evenodd" clip-rule="evenodd" d="M81.8623 498.176C81.4483 498.176 81.1123 497.84 81.1123 497.426V495.205C81.1123 494.791 81.4483 494.455 81.8623 494.455C82.2763 494.455 82.6123 494.791 82.6123 495.205V497.426C82.6123 497.84 82.2763 498.176 81.8623 498.176" fill="#4AA18B"/>
<mask id="mask0_324_822" style="mask-type:luminance" maskUnits="userSpaceOnUse" x="73" y="412" width="17" height="8">
<path fill-rule="evenodd" clip-rule="evenodd" d="M73.5 412.496H89.3399V419.87H73.5V412.496Z" fill="white"/>
</mask>
<g mask="url(#mask0_324_822)">
<path fill-rule="evenodd" clip-rule="evenodd" d="M81.4209 413.996C77.1599 413.996 74.9999 414.728 74.9999 416.173C74.9999 417.631 77.1599 418.37 81.4209 418.37C85.6809 418.37 87.8399 417.638 87.8399 416.193C87.8399 414.735 85.6809 413.996 81.4209 413.996M81.4209 419.87C79.4619 419.87 73.4999 419.87 73.4999 416.173C73.4999 412.877 78.0209 412.496 81.4209 412.496C83.3799 412.496 89.3399 412.496 89.3399 416.193C89.3399 419.489 84.8199 419.87 81.4209 419.87" fill="#4AA18B"/>
</g>
<mask id="mask1_324_822" style="mask-type:luminance" maskUnits="userSpaceOnUse" x="76" y="400" width="11" height="11">
<path fill-rule="evenodd" clip-rule="evenodd" d="M76.1099 400H86.7299V410.619H76.1099V400Z" fill="white"/>
</mask>
<g mask="url(#mask1_324_822)">
<path fill-rule="evenodd" clip-rule="evenodd" d="M81.4209 401.428C79.2799 401.428 77.5379 403.169 77.5379 405.31C77.5309 407.444 79.2599 409.184 81.3919 409.192L81.4209 409.906V409.192C83.5609 409.192 85.3019 407.45 85.3019 405.31C85.3019 403.169 83.5609 401.428 81.4209 401.428M81.4209 410.619H81.3889C78.4669 410.61 76.0999 408.227 76.1099 405.307C76.1099 402.382 78.4919 400 81.4209 400C84.3489 400 86.7299 402.382 86.7299 405.31C86.7299 408.238 84.3489 410.619 81.4209 410.619" fill="#4AA18B"/>
</g>
<path d="M171.226 418V403.455H180.005V405.017H172.988V409.932H179.55V411.494H172.988V416.438H180.118V418H171.226ZM182.952 418V407.091H184.571V408.795H184.713C184.941 408.213 185.308 407.761 185.814 407.439C186.321 407.112 186.929 406.949 187.64 406.949C188.359 406.949 188.958 407.112 189.436 407.439C189.919 407.761 190.296 408.213 190.566 408.795H190.679C190.959 408.232 191.378 407.785 191.936 407.453C192.495 407.117 193.165 406.949 193.946 406.949C194.922 406.949 195.72 407.254 196.34 407.865C196.96 408.471 197.27 409.416 197.27 410.699V418H195.594V410.699C195.594 409.894 195.374 409.319 194.934 408.973C194.493 408.627 193.975 408.455 193.378 408.455C192.611 408.455 192.017 408.687 191.596 409.151C191.174 409.61 190.963 410.192 190.963 410.898V418H189.259V410.528C189.259 409.908 189.058 409.409 188.655 409.03C188.253 408.646 187.734 408.455 187.1 408.455C186.664 408.455 186.257 408.571 185.878 408.803C185.504 409.035 185.201 409.357 184.969 409.768C184.742 410.176 184.628 410.647 184.628 411.182V418H182.952ZM203.545 418.256C202.854 418.256 202.226 418.125 201.663 417.865C201.1 417.6 200.652 417.219 200.321 416.722C199.989 416.22 199.824 415.614 199.824 414.903C199.824 414.278 199.947 413.772 200.193 413.384C200.439 412.991 200.768 412.683 201.18 412.46C201.592 412.238 202.047 412.072 202.544 411.963C203.046 411.849 203.55 411.759 204.056 411.693C204.719 411.608 205.257 411.544 205.669 411.501C206.085 411.454 206.388 411.376 206.578 411.267C206.772 411.158 206.869 410.969 206.869 410.699V410.642C206.869 409.941 206.677 409.397 206.294 409.009C205.915 408.62 205.34 408.426 204.568 408.426C203.768 408.426 203.14 408.601 202.686 408.952C202.231 409.302 201.912 409.676 201.727 410.074L200.136 409.506C200.42 408.843 200.799 408.327 201.272 407.957C201.751 407.583 202.271 407.323 202.835 407.176C203.403 407.025 203.962 406.949 204.511 406.949C204.861 406.949 205.264 406.991 205.718 407.077C206.178 407.157 206.62 407.325 207.047 407.581C207.477 407.837 207.835 408.223 208.119 408.739C208.403 409.255 208.545 409.946 208.545 410.812V418H206.869V416.523H206.784C206.67 416.759 206.481 417.013 206.216 417.283C205.95 417.553 205.598 417.782 205.157 417.972C204.717 418.161 204.18 418.256 203.545 418.256ZM203.801 416.75C204.464 416.75 205.022 416.62 205.477 416.359C205.936 416.099 206.282 415.763 206.514 415.351C206.751 414.939 206.869 414.506 206.869 414.051V412.517C206.798 412.602 206.642 412.68 206.4 412.751C206.163 412.818 205.889 412.877 205.576 412.929C205.269 412.976 204.968 413.019 204.674 413.057C204.386 413.09 204.151 413.118 203.971 413.142C203.536 413.199 203.128 413.291 202.75 413.419C202.376 413.542 202.073 413.729 201.841 413.98C201.613 414.226 201.5 414.562 201.5 414.989C201.5 415.571 201.715 416.011 202.146 416.31C202.582 416.603 203.133 416.75 203.801 416.75ZM211.604 418V407.091H213.281V418H211.604ZM212.457 405.273C212.13 405.273 211.848 405.161 211.612 404.939C211.379 404.716 211.263 404.449 211.263 404.136C211.263 403.824 211.379 403.556 211.612 403.334C211.848 403.111 212.13 403 212.457 403C212.783 403 213.063 403.111 213.295 403.334C213.531 403.556 213.65 403.824 213.65 404.136C213.65 404.449 213.531 404.716 213.295 404.939C213.063 405.161 212.783 405.273 212.457 405.273ZM218.027 403.455V418H216.35V403.455H218.027Z" fill="#4AA18B" fill-opacity="0.5"/>
</g>
<defs>
<filter id="filter0_i_324_822" x="-172.741" y="257.759" width="735.482" height="739.481" filterUnits="userSpaceOnUse" color-interpolation-filters="sRGB">
<feFlood flood-opacity="0" result="BackgroundImageFix"/>
<feBlend mode="normal" in="SourceGraphic" in2="BackgroundImageFix" result="shape"/>
<feColorMatrix in="SourceAlpha" type="matrix" values="0 0 0 0 0 0 0 0 0 0 0 0 0 0 0 0 0 0 127 0" result="hardAlpha"/>
<feOffset dy="4"/>
<feGaussianBlur stdDeviation="2"/>
<feComposite in2="hardAlpha" operator="arithmetic" k2="-1" k3="1"/>
<feColorMatrix type="matrix" values="0 0 0 0 0 0 0 0 0 0 0 0 0 0 0 0 0 0 0.25 0"/>
<feBlend mode="normal" in2="shape" result="effect1_innerShadow_324_822"/>
</filter>
<clipPath id="clip0_324_822">
<rect width="390" height="844" fill="white"/>
</clipPath>
</defs>
</svg>
