<svg width="334" height="255" viewBox="0 0 334 255" fill="none" xmlns="http://www.w3.org/2000/svg">
<g filter="url(#filter0_d_408_829)">
<path fill-rule="evenodd" clip-rule="evenodd" d="M329.075 11.6346C329.075 5.55951 324.15 0.634644 318.075 0.634644H15.4249C9.34973 0.634644 4.42487 5.55952 4.42487 11.6346V235.707C4.42487 241.782 9.34973 246.707 15.4249 246.707L65.2945 246.707C71.3696 246.707 76.2243 241.759 76.9541 235.728C82.3724 190.949 120.509 156.252 166.75 156.252C212.991 156.252 251.128 190.949 256.546 235.728C257.276 241.759 262.13 246.707 268.206 246.707L318.075 246.707C324.15 246.707 329.075 241.782 329.075 235.707V11.6346Z" fill="url(#paint0_linear_408_829)"/>
</g>
<path d="M247.108 58.3949L246.951 62.1758L248.755 64.0739L246.244 64.8157L244.489 68.1688L244.647 64.3879L242.843 62.4898L245.354 61.748L247.108 58.3949Z" fill="white"/>
<path d="M22.5086 11.8833L22.3512 15.6642L24.155 17.5623L21.6438 18.3041L19.8897 21.6572L20.0472 17.8763L18.2434 15.9782L20.7545 15.2364L22.5086 11.8833Z" fill="white"/>
<path d="M291.113 43.1124L289.086 46.3081L289.699 48.8537L287.153 48.2406L283.958 50.2674L285.984 47.0717L285.371 44.5261L287.917 45.1392L291.113 43.1124Z" fill="white"/>
<path d="M304.736 73.6512L304.838 77.434L306.768 79.2037L304.314 80.1162L302.794 83.5819L302.692 79.7991L300.762 78.0294L303.216 77.1169L304.736 73.6512Z" fill="white"/>
<path d="M50.0345 27.0693L52.7237 29.7318L55.3415 29.6763L54.1989 32.0323L55.4967 35.5871L52.8075 32.9246L50.1896 32.9801L51.3322 30.6241L50.0345 27.0693Z" fill="white"/>
<path d="M87.2115 25.3296L86.7836 29.0895L88.4468 31.1119L85.889 31.6719L83.8991 34.8907L84.327 31.1308L82.6638 29.1084L85.2217 28.5484L87.2115 25.3296Z" fill="white"/>
<path d="M193.954 11.8864L193.526 15.6463L195.189 17.6687L192.631 18.2287L190.641 21.4475L191.069 17.6876L189.406 15.6652L191.964 15.1052L193.954 11.8864Z" fill="white"/>
<path d="M134.027 12.4904L136.45 15.3968L139.062 15.5909L137.7 17.8274L138.653 21.4896L136.23 18.5831L133.619 18.389L134.98 16.1525L134.027 12.4904Z" fill="white"/>
<path d="M22.2647 52L25.035 54.5779L27.6499 54.4414L26.5808 56.8316L27.988 60.3445L25.2176 57.7666L22.6028 57.9031L23.6718 55.5128L22.2647 52Z" fill="white"/>
<path d="M77.3085 59.3337L80.0788 61.9116L82.6937 61.7751L81.6246 64.1654L83.0318 67.6782L80.2614 65.1004L77.6466 65.2368L78.7156 62.8466L77.3085 59.3337Z" fill="white"/>
<path d="M48.768 81.0451L48.6106 84.826L50.4144 86.724L47.9032 87.4658L46.1491 90.8189L46.3065 87.038L44.5027 85.14L47.0139 84.3982L48.768 81.0451Z" fill="white"/>
<path d="M277.875 100.047L280.645 102.624L283.26 102.488L282.191 104.878L283.598 108.391L280.828 105.813L278.213 105.95L279.282 103.559L277.875 100.047Z" fill="white"/>
<path d="M314.24 15.7686L313.812 19.5285L315.475 21.5509L312.917 22.1109L310.927 25.3297L311.355 21.5698L309.692 19.5474L312.25 18.9874L314.24 15.7686Z" fill="white"/>
<path d="M252.714 14.8104L255.276 17.5953L257.894 17.6619L256.643 19.9621L257.774 23.5734L255.211 20.7886L252.594 20.722L253.845 18.4218L252.714 14.8104Z" fill="white"/>
<defs>
<filter id="filter0_d_408_829" x="0.424866" y="0.634644" width="332.65" height="254.073" filterUnits="userSpaceOnUse" color-interpolation-filters="sRGB">
<feFlood flood-opacity="0" result="BackgroundImageFix"/>
<feColorMatrix in="SourceAlpha" type="matrix" values="0 0 0 0 0 0 0 0 0 0 0 0 0 0 0 0 0 0 127 0" result="hardAlpha"/>
<feOffset dy="4"/>
<feGaussianBlur stdDeviation="2"/>
<feComposite in2="hardAlpha" operator="out"/>
<feColorMatrix type="matrix" values="0 0 0 0 0 0 0 0 0 0 0 0 0 0 0 0 0 0 0.25 0"/>
<feBlend mode="normal" in2="BackgroundImageFix" result="effect1_dropShadow_408_829"/>
<feBlend mode="normal" in="SourceGraphic" in2="effect1_dropShadow_408_829" result="shape"/>
</filter>
<linearGradient id="paint0_linear_408_829" x1="166.75" y1="0.634644" x2="166.75" y2="246.707" gradientUnits="userSpaceOnUse">
<stop stop-color="#409576"/>
<stop offset="1" stop-color="#3B7C76"/>
</linearGradient>
</defs>
</svg>
