<svg width="25" height="25" viewBox="0 0 25 25" fill="none" xmlns="http://www.w3.org/2000/svg">
<path fill-rule="evenodd" clip-rule="evenodd" d="M0 12.5C0 5.59644 5.59644 0 12.5 0C19.4036 0 25 5.59644 25 12.5C25 19.4036 19.4036 25 12.5 25C5.59644 25 0 19.4036 0 12.5ZM6.20243 9.2041C6.55898 5.99518 9.27133 3.5675 12.5 3.5675C15.7287 3.5675 18.441 5.99518 18.7976 9.2041L19.0494 11.4703L19.0555 11.5253C19.1724 12.5436 19.5039 13.5256 20.0281 14.4064L20.0565 14.4539L20.6345 15.4173L20.6539 15.4497L20.6539 15.4497C20.8996 15.8591 21.1127 16.2141 21.2529 16.512C21.395 16.8137 21.5267 17.183 21.4624 17.5903C21.3965 18.0081 21.1814 18.3879 20.8571 18.6595C20.5409 18.9241 20.1565 19.0012 19.8247 19.0346C19.4971 19.0675 19.083 19.0675 18.6056 19.0675H18.6056H18.6055L18.5678 19.0675H16.0847C15.865 19.879 15.4323 20.6107 14.8265 21.153C14.1748 21.7365 13.3576 22.0675 12.5 22.0675C11.6424 22.0675 10.8252 21.7365 10.1735 21.153C9.56765 20.6107 9.13504 19.879 8.91533 19.0675H6.43223L6.39448 19.0675H6.39444H6.39441C5.91697 19.0675 5.5029 19.0675 5.17534 19.0346C4.8435 19.0012 4.45907 18.9241 4.14295 18.6595C3.81856 18.3879 3.60351 18.0081 3.53758 17.5903C3.47332 17.183 3.60496 16.8137 3.74706 16.512C3.88734 16.2141 4.1004 15.8591 4.34607 15.4496L4.3655 15.4173L4.94353 14.4539L4.97194 14.4064C5.49615 13.5256 5.82762 12.5436 5.94448 11.5253L5.95063 11.4703L6.20243 9.2041ZM10.4976 19.0675C10.6597 19.4533 10.8931 19.784 11.174 20.0354C11.5701 20.3901 12.0368 20.5675 12.5 20.5675C12.9632 20.5675 13.4299 20.3901 13.826 20.0354C14.1069 19.784 14.3403 19.4533 14.5024 19.0675H10.4976ZM12.5 5.0675C10.0357 5.0675 7.9654 6.92047 7.69326 9.36975L7.44145 11.636L7.4347 11.6963C7.29366 12.9253 6.89361 14.1105 6.26095 15.1736L6.22977 15.2256L5.65174 16.189C5.38104 16.6402 5.20825 16.9299 5.10409 17.1511C5.04011 17.2869 5.02523 17.3512 5.02181 17.3702C5.03253 17.4199 5.05815 17.4652 5.09524 17.4999C5.11329 17.5068 5.17609 17.5271 5.32549 17.5421C5.56873 17.5666 5.90609 17.5675 6.43223 17.5675H18.5678C19.0939 17.5675 19.4313 17.5666 19.6745 17.5421C19.8239 17.5271 19.8867 17.5068 19.9048 17.4999C19.9418 17.4652 19.9675 17.4199 19.9782 17.3702C19.9748 17.3512 19.9599 17.2869 19.8959 17.1511C19.7917 16.9299 19.619 16.6402 19.3483 16.189L18.7702 15.2256L18.7391 15.1736C18.1064 14.1105 17.7063 12.9253 17.5653 11.6963L17.5585 11.636L17.3067 9.36975C17.0346 6.92047 14.9643 5.0675 12.5 5.0675Z" fill="black"/>
</svg>
