
<?xml version="1.0" encoding="UTF-8"?>
<svg id="Livello_1" data-name="Livello 1" xmlns="http://www.w3.org/2000/svg" xmlns:xlink="http://www.w3.org/1999/xlink" viewBox="0 0 1088.34 902.21">
  <defs>
    <style>
      .cls-1 {
        fill: url(#Sfumatura_senza_nome_2);
      }
    </style>
    <linearGradient id="Sfumatura_senza_nome_2" data-name="Sfumatura senza nome 2" x1="544.17" y1="2384.41" x2="544.17" y2="1482.21" gradientTransform="translate(0 2384.41) scale(1 -1)" gradientUnits="userSpaceOnUse">
      <stop offset="0" stop-color="#4aa18b"/>
      <stop offset="1" stop-color="#1b3b33"/>
    </linearGradient>
  </defs>
  <path class="cls-1" d="m0,42.91C0,19.21,9.58,0,21.39,0h1045.56c11.82,0,21.39,19.21,21.39,42.91v816.38c0,23.7-9.57,42.91-21.39,42.91h-471.58c-11.81,0-26.39-24.21-26.39-47.91v-60.23c0-23.7-14.58-32.91-26.39-32.91h-138.28c-11.81,0-21.39-19.21-21.39-42.91v-66.08c0-23.7-16.58-33.91-28.39-33.91h-46.63c-11.81,0-21.39-19.21-21.39-42.91v-57.5c0-23.7-20.58-43.91-32.39-43.91H21.39c-11.81,0-21.39-19.21-21.39-42.91V42.91Z"/>
</svg>