<svg width="80" height="43" viewBox="0 0 80 43" fill="none" xmlns="http://www.w3.org/2000/svg">
<mask id="mask0_607_938" style="mask-type:alpha" maskUnits="userSpaceOnUse" x="37" y="0" width="43" height="43">
<rect x="37.4775" y="42.188" width="42.1751" height="42.1751" transform="rotate(-90 37.4775 42.188)" fill="#D9D9D9"/>
</mask>
<g mask="url(#mask0_607_938)">
<path d="M76.1381 21.1003L63.8371 33.4014L61.3329 30.9411L69.4165 22.8576L56.8079 22.8576L56.8079 19.343L69.4165 19.343L61.3768 11.2594L63.8371 8.7992L76.1381 21.1003ZM53.2933 22.8576L48.0214 22.8576L48.0214 19.343L53.2933 19.343L53.2933 22.8576ZM44.5068 22.8576L40.9922 22.8576L40.9922 19.343L44.5068 19.343L44.5068 22.8576Z" fill="black"/>
</g>
<mask id="mask1_607_938" style="mask-type:alpha" maskUnits="userSpaceOnUse" x="0" y="4" width="35" height="35">
<rect x="0.625" y="4.05798" width="34.0852" height="34.0852" fill="#D9D9D9"/>
</mask>
<g mask="url(#mask1_607_938)">
<path d="M9.14658 33.8825C8.74419 33.8825 8.40689 33.7464 8.13468 33.4742C7.86247 33.202 7.72637 32.8647 7.72637 32.4623V29.5509C7.3003 29.0775 6.95708 28.5508 6.69671 27.9709C6.43634 27.391 6.30615 26.7578 6.30615 26.0713V12.5793C6.30615 10.6147 7.21746 9.1767 9.04007 8.2654C10.8627 7.35409 13.7386 6.89844 17.6679 6.89844C21.7392 6.89844 24.6506 7.33634 26.4022 8.21214C28.1538 9.08794 29.0296 10.5437 29.0296 12.5793V26.0713C29.0296 26.7578 28.8994 27.391 28.639 27.9709C28.3787 28.5508 28.0355 29.0775 27.6094 29.5509V32.4623C27.6094 32.8647 27.4733 33.202 27.2011 33.4742C26.9289 33.7464 26.5916 33.8825 26.1892 33.8825H24.769C24.3666 33.8825 24.0293 33.7464 23.7571 33.4742C23.4848 33.202 23.3487 32.8647 23.3487 32.4623V31.0421H11.987V32.4623C11.987 32.8647 11.8509 33.202 11.5787 33.4742C11.3065 33.7464 10.9692 33.8825 10.5668 33.8825H9.14658ZM9.14658 18.2602H26.1892V13.9995H9.14658V18.2602ZM12.6971 26.7815C13.2889 26.7815 13.7919 26.5743 14.2061 26.1601C14.6203 25.7459 14.8274 25.2429 14.8274 24.6511C14.8274 24.0594 14.6203 23.5564 14.2061 23.1422C13.7919 22.7279 13.2889 22.5208 12.6971 22.5208C12.1054 22.5208 11.6024 22.7279 11.1881 23.1422C10.7739 23.5564 10.5668 24.0594 10.5668 24.6511C10.5668 25.2429 10.7739 25.7459 11.1881 26.1601C11.6024 26.5743 12.1054 26.7815 12.6971 26.7815ZM22.6386 26.7815C23.2304 26.7815 23.7334 26.5743 24.1476 26.1601C24.5618 25.7459 24.769 25.2429 24.769 24.6511C24.769 24.0594 24.5618 23.5564 24.1476 23.1422C23.7334 22.7279 23.2304 22.5208 22.6386 22.5208C22.0469 22.5208 21.5439 22.7279 21.1297 23.1422C20.7154 23.5564 20.5083 24.0594 20.5083 24.6511C20.5083 25.2429 20.7154 25.7459 21.1297 26.1601C21.5439 26.5743 22.0469 26.7815 22.6386 26.7815ZM9.78568 11.1591H25.6921C25.337 10.7567 24.5737 10.4194 23.402 10.1472C22.2303 9.87497 20.3426 9.73887 17.7389 9.73887C15.2062 9.73887 13.354 9.88681 12.1823 10.1827C11.0106 10.4786 10.2117 10.804 9.78568 11.1591ZM11.987 28.2017H23.3487C24.1299 28.2017 24.7985 27.9235 25.3548 27.3673C25.911 26.811 26.1892 26.1424 26.1892 25.3612V21.1006H9.14658V25.3612C9.14658 26.1424 9.42471 26.811 9.98096 27.3673C10.5372 27.9235 11.2059 28.2017 11.987 28.2017Z" fill="black"/>
</g>
</svg>
