<svg width="26" height="26" viewBox="0 0 26 26" fill="none" xmlns="http://www.w3.org/2000/svg">
<path fill-rule="evenodd" clip-rule="evenodd" d="M0.428467 13.3235C0.428467 6.41993 6.02491 0.823486 12.9285 0.823486C19.832 0.823486 25.4285 6.41993 25.4285 13.3235C25.4285 20.227 19.832 25.8235 12.9285 25.8235C6.02491 25.8235 0.428467 20.227 0.428467 13.3235ZM10.4285 12.8235C8.77161 12.8235 7.42847 14.1666 7.42847 15.8235C7.42847 17.4803 8.77161 18.8235 10.4285 18.8235C12.0853 18.8235 13.4285 17.4803 13.4285 15.8235C13.4285 14.1666 12.0853 12.8235 10.4285 12.8235ZM5.42847 15.8235C5.42847 13.0621 7.66704 10.8235 10.4285 10.8235C11.4475 10.8235 12.3954 11.1284 13.1859 11.6519L16.2214 8.61638L17.7214 7.11638C18.1119 6.72586 18.745 6.72586 19.1356 7.11638C19.5261 7.5069 19.5261 8.14007 19.1356 8.53059L18.3427 9.32349L20.1356 11.1164C20.5261 11.5069 20.5261 12.1401 20.1356 12.5306C19.745 12.9211 19.1119 12.9211 18.7214 12.5306L16.9285 10.7377L14.6001 13.0661C15.1236 13.8565 15.4285 14.8044 15.4285 15.8235C15.4285 18.5849 13.1899 20.8235 10.4285 20.8235C7.66704 20.8235 5.42847 18.5849 5.42847 15.8235Z" fill="black"/>
</svg>
