<svg width="20" height="21" viewBox="0 0 20 21" fill="none" xmlns="http://www.w3.org/2000/svg">
<path d="M10 20.357C8.61667 20.357 7.31667 20.0945 6.1 19.5695C4.88333 19.0445 3.825 18.332 2.925 17.432C2.025 16.532 1.3125 15.4737 0.7875 14.257C0.2625 13.0403 0 11.7403 0 10.357C0 8.97366 0.2625 7.67366 0.7875 6.45699C1.3125 5.24033 2.025 4.18199 2.925 3.28199C3.825 2.38199 4.88333 1.66949 6.1 1.14449C7.31667 0.619495 8.61667 0.356995 10 0.356995C11.3833 0.356995 12.6833 0.619495 13.9 1.14449C15.1167 1.66949 16.175 2.38199 17.075 3.28199C17.975 4.18199 18.6875 5.24033 19.2125 6.45699C19.7375 7.67366 20 8.97366 20 10.357V11.807C20 12.7903 19.6625 13.6278 18.9875 14.3195C18.3125 15.0112 17.4833 15.357 16.5 15.357C15.9167 15.357 15.3667 15.232 14.85 14.982C14.3333 14.732 13.9 14.3737 13.55 13.907C13.0667 14.3903 12.5208 14.7528 11.9125 14.9945C11.3042 15.2362 10.6667 15.357 10 15.357C8.61667 15.357 7.4375 14.8695 6.4625 13.8945C5.4875 12.9195 5 11.7403 5 10.357C5 8.97366 5.4875 7.79449 6.4625 6.81949C7.4375 5.84449 8.61667 5.35699 10 5.35699C11.3833 5.35699 12.5625 5.84449 13.5375 6.81949C14.5125 7.79449 15 8.97366 15 10.357V11.807C15 12.2403 15.1417 12.607 15.425 12.907C15.7083 13.207 16.0667 13.357 16.5 13.357C16.9333 13.357 17.2917 13.207 17.575 12.907C17.8583 12.607 18 12.2403 18 11.807V10.357C18 8.12366 17.225 6.232 15.675 4.68199C14.125 3.13199 12.2333 2.35699 10 2.35699C7.76667 2.35699 5.875 3.13199 4.325 4.68199C2.775 6.232 2 8.12366 2 10.357C2 12.5903 2.775 14.482 4.325 16.032C5.875 17.582 7.76667 18.357 10 18.357H15V20.357H10ZM10 13.357C10.8333 13.357 11.5417 13.0653 12.125 12.482C12.7083 11.8987 13 11.1903 13 10.357C13 9.52366 12.7083 8.81533 12.125 8.23199C11.5417 7.64866 10.8333 7.35699 10 7.35699C9.16667 7.35699 8.45833 7.64866 7.875 8.23199C7.29167 8.81533 7 9.52366 7 10.357C7 11.1903 7.29167 11.8987 7.875 12.482C8.45833 13.0653 9.16667 13.357 10 13.357Z" fill="#4AA18B"/>
</svg>
