<svg width="26" height="26" viewBox="0 0 26 26" fill="none" xmlns="http://www.w3.org/2000/svg">
<circle cx="12.9285" cy="12.6047" r="12.5" fill="black"/>
<path d="M11.8007 14.6214V14.5202C11.8078 13.8596 11.8735 13.3341 11.9977 12.9434C12.1256 12.5528 12.3067 12.2368 12.5411 11.9953C12.7754 11.7538 13.0578 11.5336 13.388 11.3348C13.6011 11.1998 13.7928 11.0489 13.9633 10.882C14.1338 10.7151 14.2687 10.5233 14.3681 10.3067C14.4676 10.0901 14.5173 9.85041 14.5173 9.58762C14.5173 9.27157 14.4427 8.99814 14.2936 8.76731C14.1444 8.53649 13.9455 8.35893 13.697 8.23464C13.4519 8.1068 13.1785 8.04288 12.8767 8.04288C12.6032 8.04288 12.3422 8.0997 12.0936 8.21333C11.845 8.32697 11.6391 8.50453 11.4757 8.746C11.3124 8.98393 11.2183 9.2911 11.1934 9.66752H9.5741C9.59895 9.02832 9.76053 8.48855 10.0588 8.04821C10.3571 7.60431 10.7513 7.26873 11.2414 7.04146C11.735 6.81419 12.2801 6.70055 12.8767 6.70055C13.5301 6.70055 14.1018 6.82306 14.5919 7.06809C15.0819 7.30957 15.4619 7.6487 15.7318 8.08549C16.0052 8.51873 16.1419 9.02477 16.1419 9.6036C16.1419 10.0013 16.0798 10.36 15.9555 10.6796C15.8312 10.9956 15.6536 11.278 15.4228 11.5265C15.1955 11.7751 14.9221 11.9953 14.6025 12.1871C14.3007 12.3753 14.0556 12.5706 13.8674 12.773C13.6828 12.9754 13.5478 13.2151 13.4626 13.4921C13.3774 13.7691 13.3312 14.1118 13.3241 14.5202V14.6214H11.8007ZM12.605 17.86C12.3138 17.86 12.0634 17.757 11.8539 17.551C11.6444 17.3415 11.5397 17.0894 11.5397 16.7947C11.5397 16.5035 11.6444 16.2549 11.8539 16.0489C12.0634 15.8394 12.3138 15.7346 12.605 15.7346C12.8926 15.7346 13.1412 15.8394 13.3507 16.0489C13.5638 16.2549 13.6703 16.5035 13.6703 16.7947C13.6703 16.99 13.6206 17.1693 13.5212 17.3327C13.4253 17.4925 13.2975 17.6203 13.1377 17.7162C12.9779 17.8121 12.8003 17.86 12.605 17.86Z" fill="white"/>
</svg>
