<svg width="36" height="36" viewBox="0 0 36 36" fill="none" xmlns="http://www.w3.org/2000/svg">
<path d="M20.4922 7.92172L21.736 7.79734L21.736 7.79734L20.4922 7.92172ZM20.2174 6.71905L21.2037 5.95115L21.2037 5.95115L20.2174 6.71905ZM21.0258 10.0368L21.7797 9.03967L21.7797 9.03967L21.0258 10.0368ZM21.4913 10.2296L21.6633 8.99146L21.6633 8.99146L21.4913 10.2296ZM23.3642 9.11136L24.1557 10.0788L24.1557 10.0788L23.3642 9.11136ZM24.4089 8.45524L24.2544 7.21482L24.2544 7.21482L24.4089 8.45524ZM24.7541 8.47246L24.477 9.69136L24.477 9.69136L24.7541 8.47246ZM26.7707 10.2717L25.8868 11.1555L25.8868 11.1555L26.7707 10.2717ZM27.5275 11.2459L26.3086 11.523L26.3086 11.523L27.5275 11.2459ZM27.5448 11.5911L26.3043 11.4367L26.3043 11.4367L27.5448 11.5911ZM26.8886 12.6358L27.7725 13.5197L27.8166 13.4756L27.8561 13.4274L26.8886 12.6358ZM26.8886 12.6358L26.0047 11.752L25.9607 11.796L25.9212 11.8443L26.8886 12.6358ZM25.7704 14.5087L27.0085 14.3367L27.0085 14.3367L25.7704 14.5087ZM25.9632 14.9742L24.9661 15.7281L24.9661 15.7281L25.9632 14.9742ZM28.0783 15.5079L27.9539 16.7517L27.9539 16.7517L28.0783 15.5079ZM29.281 15.7827L28.5131 16.769L28.5131 16.769L29.281 15.7827ZM29.5129 16.0389L30.5708 15.3729L30.5707 15.3729L29.5129 16.0389ZM29.513 19.9611L30.5709 20.6269L30.5709 20.6269L29.513 19.9611ZM29.2809 20.2175L30.0487 21.2039L30.0487 21.2039L29.2809 20.2175ZM28.0784 20.4922L28.2028 21.736L28.2028 21.736L28.0784 20.4922ZM25.9638 21.0256L24.9669 20.2715L24.9669 20.2715L25.9638 21.0256ZM25.7708 21.4915L24.5327 21.3198L24.5327 21.3198L25.7708 21.4915ZM26.8888 23.3639L25.9214 24.1554L25.9214 24.1554L26.8888 23.3639ZM27.5448 24.4083L26.3044 24.5629L26.3044 24.5629L27.5448 24.4083ZM27.5276 24.7538L28.7464 25.0311L28.7464 25.0311L27.5276 24.7538ZM24.7542 27.5271L24.4771 26.3082L24.4771 26.3082L24.7542 27.5271ZM24.4089 27.5443L24.5634 26.3039L24.5634 26.3039L24.4089 27.5443ZM23.3642 26.8882L22.4804 27.7721L22.5244 27.8162L22.5727 27.8557L23.3642 26.8882ZM23.3642 26.8882L24.2481 26.0043L24.204 25.9602L24.1558 25.9207L23.3642 26.8882ZM21.4914 25.77L21.3194 24.5319L21.3194 24.5319L21.4914 25.77ZM21.0258 25.9628L20.272 24.9657L20.272 24.9657L21.0258 25.9628ZM20.4922 28.0781L21.736 28.2025L21.736 28.2025L20.4922 28.0781ZM20.2173 29.2811L21.2035 30.0492L21.2035 30.0492L20.2173 29.2811ZM19.9612 29.5129L19.2951 28.4552L19.2951 28.4552L19.9612 29.5129ZM16.0389 29.513L15.3729 30.5708L15.3729 30.5708L16.0389 29.513ZM15.7826 29.281L14.7963 30.049L14.7963 30.049L15.7826 29.281ZM15.5078 28.0783L16.7516 27.954L16.7516 27.954L15.5078 28.0783ZM14.9742 25.9633L14.2203 26.9604L14.2203 26.9604L14.9742 25.9633ZM14.5087 25.7705L14.6807 24.5323L14.6807 24.5323L14.5087 25.7705ZM12.6358 26.8887L13.4273 27.8562L13.4273 27.8562L12.6358 26.8887ZM11.591 27.5449L11.7454 28.7853L11.7454 28.7853L11.591 27.5449ZM11.2458 27.5276L10.9687 28.7465L10.9688 28.7465L11.2458 27.5276ZM10.2716 26.7708L9.33084 27.5939L9.35825 27.6253L9.38768 27.6547L10.2716 26.7708ZM10.2715 26.7708L11.2123 25.9477L11.1849 25.9163L11.1554 25.8869L10.2715 26.7708ZM9.2292 25.7284L10.1131 24.8446L10.0997 24.8312L10.0859 24.8182L9.2292 25.7284ZM9.22919 25.7284L8.3453 26.6123L8.35869 26.6257L8.37248 26.6387L9.22919 25.7284ZM8.47237 24.7542L7.25347 25.0313L7.25347 25.0313L8.47237 24.7542ZM8.45515 24.409L7.21473 24.2546L7.21473 24.2546L8.45515 24.409ZM9.11129 23.3643L10.0787 24.1558L10.0814 24.1525L9.11129 23.3643ZM9.1113 23.3642L8.14385 22.5727L8.14116 22.576L9.1113 23.3642ZM10.2295 21.4913L8.99142 21.6633L8.99142 21.6633L10.2295 21.4913ZM10.0367 21.0258L9.03962 21.7797L9.03962 21.7797L10.0367 21.0258ZM7.92169 20.4922L8.04607 19.2484L7.98403 19.2422H7.92169V20.4922ZM7.92168 20.4922L7.7973 21.736L7.85933 21.7422H7.92168V20.4922ZM6.71902 20.2174L7.48692 19.2311L7.48692 19.2311L6.71902 20.2174ZM6.48708 19.9611L7.54491 19.2952L7.54491 19.2952L6.48708 19.9611ZM6.48714 16.0388L7.54489 16.7049L7.5449 16.7049L6.48714 16.0388ZM6.71893 15.7827L7.48695 16.7689L7.48695 16.7689L6.71893 15.7827ZM7.92182 15.5079L8.0462 16.7517L8.0462 16.7517L7.92182 15.5079ZM10.0372 14.9741L9.04003 14.2204L9.04003 14.2204L10.0372 14.9741ZM10.2299 14.5089L11.468 14.681L11.468 14.681L10.2299 14.5089ZM9.11149 12.6355L8.14405 13.427L8.14405 13.427L9.11149 12.6355ZM8.45519 11.5904L9.69563 11.4362L9.69563 11.4362L8.45519 11.5904ZM8.47239 11.2455L7.25344 10.9686L7.25344 10.9686L8.47239 11.2455ZM9.22939 10.271L8.34551 9.38709L8.34551 9.38709L9.22939 10.271ZM10.2716 9.22877L9.38772 8.34489L9.38772 8.34489L10.2716 9.22877ZM11.2459 8.47193L11.5229 9.69083L11.5229 9.69083L11.2459 8.47193ZM11.5911 8.45471L11.4366 9.69514L11.4366 9.69514L11.5911 8.45471ZM12.6359 9.11093L13.4274 8.14348L13.4274 8.14348L12.6359 9.11093ZM14.5086 10.2291L14.6803 11.4673L14.6803 11.4673L14.5086 10.2291ZM14.9744 10.0362L14.2203 9.03924L14.2203 9.03924L14.9744 10.0362ZM15.5079 7.92156L14.2641 7.79718L14.2641 7.79719L15.5079 7.92156ZM15.7825 6.71915L16.7689 7.48693L16.7689 7.48693L15.7825 6.71915ZM16.039 6.48704L16.7048 7.54496L16.7048 7.54496L16.039 6.48704ZM19.9611 6.48711L20.6271 5.42928L20.6271 5.42928L19.9611 6.48711ZM21.736 7.79734C21.706 7.49733 21.6758 7.18131 21.6223 6.91554C21.5645 6.62797 21.4586 6.27858 21.2037 5.95115L19.2311 7.48695C19.1534 7.38721 19.1525 7.31416 19.1714 7.40851C19.1812 7.45694 19.1923 7.52834 19.2055 7.63962C19.2188 7.75083 19.2318 7.88016 19.2484 8.0461L21.736 7.79734ZM21.7797 9.03967C21.974 9.18661 21.9535 9.34159 21.8959 9.0772C21.8405 8.82298 21.8009 8.44629 21.736 7.79734L19.2484 8.0461C19.3069 8.63153 19.3598 9.18062 19.4533 9.60945C19.5445 10.0281 19.7291 10.6234 20.2719 11.0338L21.7797 9.03967ZM21.6633 8.99146C21.7056 8.99733 21.7456 9.01393 21.7797 9.03967L20.2719 11.0338C20.5783 11.2655 20.9389 11.4148 21.3193 11.4677L21.6633 8.99146ZM22.5726 8.14391C22.0679 8.5569 21.7735 8.7952 21.5545 8.93579C21.3268 9.082 21.422 8.95794 21.6633 8.99146L21.3193 11.4677C21.9934 11.5613 22.5449 11.2709 22.9054 11.0394C23.2747 10.8022 23.7004 10.4514 24.1557 10.0788L22.5726 8.14391ZM24.2544 7.21482C23.8426 7.2661 23.5207 7.4383 23.2765 7.60074C23.0508 7.75086 22.806 7.95299 22.5726 8.14391L24.1557 10.0788C24.2848 9.9732 24.3854 9.89093 24.4734 9.82167C24.5615 9.75237 24.6198 9.70974 24.661 9.68238C24.7411 9.62908 24.6888 9.68005 24.5633 9.69567L24.2544 7.21482ZM25.0312 7.25357C24.7765 7.19566 24.5136 7.18255 24.2544 7.21482L24.5633 9.69567C24.5345 9.69925 24.5053 9.6978 24.477 9.69136L25.0312 7.25357ZM26.6122 8.34539C26.399 8.1322 26.1756 7.90671 25.9659 7.73487C25.7391 7.54894 25.4359 7.34556 25.0312 7.25357L24.477 9.69136C24.3538 9.66334 24.3067 9.60742 24.3812 9.66842C24.4194 9.69974 24.4732 9.74797 24.5539 9.82569C24.6346 9.90336 24.7265 9.99524 24.8445 10.1132L26.6122 8.34539ZM27.6546 9.38777L26.6122 8.34539L24.8445 10.1132L25.8868 11.1555L27.6546 9.38777ZM28.7464 10.9688C28.6545 10.5641 28.4511 10.261 28.2651 10.0341C28.0933 9.82443 27.8678 9.60097 27.6546 9.38777L25.8868 11.1555C26.0048 11.2735 26.0966 11.3654 26.1743 11.4461C26.252 11.5268 26.3003 11.5806 26.3316 11.6188C26.3926 11.6933 26.3367 11.6463 26.3086 11.523L28.7464 10.9688ZM28.7852 11.7456C28.8175 11.4863 28.8043 11.2235 28.7464 10.9688L26.3086 11.523C26.3022 11.4947 26.3008 11.4655 26.3043 11.4367L28.7852 11.7456ZM27.8561 13.4274C28.047 13.194 28.2491 12.9492 28.3993 12.7235C28.5617 12.4793 28.7339 12.1573 28.7852 11.7456L26.3043 11.4367C26.32 11.3112 26.3709 11.2589 26.3176 11.339C26.2903 11.3802 26.2476 11.4385 26.1783 11.5266C26.1091 11.6146 26.0268 11.7152 25.9212 11.8443L27.8561 13.4274ZM27.7725 13.5197L27.7725 13.5197L26.0048 11.7519L26.0047 11.752L27.7725 13.5197ZM27.0085 14.3367C27.042 14.5781 26.918 14.6732 27.0642 14.4455C27.2048 14.2266 27.4431 13.9321 27.8561 13.4274L25.9212 11.8443C25.5486 12.2996 25.1977 12.7253 24.9606 13.0946C24.7291 13.4552 24.4387 14.0067 24.5323 14.6807L27.0085 14.3367ZM26.9603 14.2204C26.986 14.2544 27.0026 14.2945 27.0085 14.3367L24.5323 14.6807C24.5851 15.0612 24.7345 15.4217 24.9661 15.7281L26.9603 14.2204ZM28.2027 14.2641C27.5537 14.1992 27.177 14.1595 26.9228 14.1041C26.6584 14.0465 26.8134 14.026 26.9603 14.2204L24.9661 15.7281C25.3765 16.2709 25.9719 16.4556 26.3905 16.5468C26.8194 16.6402 27.3685 16.6931 27.9539 16.7517L28.2027 14.2641ZM30.0489 14.7964C29.7215 14.5414 29.3721 14.4355 29.0845 14.3777C28.8187 14.3242 28.5027 14.2941 28.2027 14.2641L27.9539 16.7517C28.1199 16.7683 28.2492 16.7812 28.3604 16.7945C28.4717 16.8078 28.5431 16.8189 28.5915 16.8286C28.6859 16.8476 28.6128 16.8466 28.5131 16.769L30.0489 14.7964ZM30.5707 15.3729C30.4316 15.1519 30.255 14.9568 30.0489 14.7963L28.5131 16.769C28.4902 16.7511 28.4706 16.7294 28.4551 16.7049L30.5707 15.3729ZM30.9167 17.263C30.9167 16.9615 30.9181 16.644 30.8914 16.3742C30.8624 16.0823 30.7918 15.7241 30.5708 15.3729L28.4551 16.7049C28.3878 16.5979 28.3941 16.5251 28.4036 16.6209C28.4084 16.6701 28.4124 16.7422 28.4145 16.8543C28.4166 16.9662 28.4167 17.0962 28.4167 17.263H30.9167ZM30.9167 18.7372V17.263H28.4167V18.7372H30.9167ZM30.5709 20.6269C30.7919 20.2758 30.8624 19.9176 30.8914 19.6258C30.9181 19.3561 30.9167 19.0387 30.9167 18.7372H28.4167C28.4167 18.904 28.4166 19.0339 28.4145 19.1459C28.4124 19.2579 28.4084 19.33 28.4036 19.3792C28.3941 19.4749 28.3878 19.4022 28.4551 19.2952L30.5709 20.6269ZM30.0487 21.2039C30.255 21.0434 30.4317 20.8481 30.5709 20.6269L28.4551 19.2952C28.4706 19.2706 28.4902 19.2489 28.5131 19.2311L30.0487 21.2039ZM28.2028 21.736C28.5028 21.706 28.8187 21.6758 29.0845 21.6224C29.372 21.5646 29.7213 21.4587 30.0487 21.2039L28.5131 19.2311C28.6129 19.1535 28.6859 19.1525 28.5915 19.1715C28.5431 19.1812 28.4717 19.1923 28.3605 19.2056C28.2493 19.2188 28.1199 19.2318 27.954 19.2484L28.2028 21.736ZM26.9607 21.7797C26.8138 21.974 26.6588 21.9535 26.9232 21.8959C27.1774 21.8405 27.554 21.8009 28.2028 21.736L27.954 19.2484C27.3687 19.3069 26.8198 19.3598 26.391 19.4532C25.9725 19.5444 25.3773 19.7289 24.9669 20.2715L26.9607 21.7797ZM27.009 21.6632C27.0031 21.7055 26.9865 21.7456 26.9607 21.7797L24.9669 20.2715C24.735 20.5781 24.5855 20.939 24.5327 21.3198L27.009 21.6632ZM27.8563 22.5723C27.4434 22.0677 27.2052 21.7734 27.0646 21.5545C26.9184 21.3269 27.0424 21.422 27.009 21.6632L24.5327 21.3198C24.4392 21.9937 24.7296 22.545 24.961 22.9055C25.1981 23.2747 25.5489 23.7002 25.9214 24.1554L27.8563 22.5723ZM28.7852 24.2537C28.7339 23.842 28.5617 23.5202 28.3993 23.276C28.2492 23.0504 28.0471 22.8056 27.8563 22.5723L25.9214 24.1554C26.0269 24.2845 26.1092 24.3851 26.1784 24.4731C26.2477 24.5611 26.2903 24.6194 26.3177 24.6605C26.371 24.7407 26.32 24.6883 26.3044 24.5629L28.7852 24.2537ZM28.7464 25.0311C28.8044 24.7762 28.8175 24.5131 28.7852 24.2536L26.3044 24.5629C26.3008 24.5341 26.3023 24.5049 26.3087 24.4766L28.7464 25.0311ZM27.6548 26.6117C27.8679 26.3985 28.0934 26.1751 28.2652 25.9655C28.451 25.7387 28.6544 25.4356 28.7464 25.0311L26.3087 24.4765C26.3367 24.3533 26.3926 24.3063 26.3317 24.3807C26.3003 24.4189 26.2521 24.4727 26.1744 24.5534C26.0968 24.6341 26.0049 24.726 25.887 24.8439L27.6548 26.6117ZM26.6123 27.6542L27.6548 26.6117L25.887 24.8439L24.8445 25.8864L26.6123 27.6542ZM25.0313 28.746C25.4359 28.654 25.7391 28.4506 25.966 28.2647C26.1756 28.0929 26.3991 27.8674 26.6123 27.6542L24.8445 25.8864C24.7266 26.0043 24.6347 26.0962 24.554 26.1739C24.4732 26.2516 24.4194 26.2998 24.3812 26.3311C24.3068 26.3922 24.3538 26.3362 24.4771 26.3082L25.0313 28.746ZM24.2545 28.7847C24.5137 28.817 24.7766 28.8039 25.0313 28.746L24.4771 26.3082C24.5054 26.3018 24.5346 26.3003 24.5634 26.3039L24.2545 28.7847ZM22.5727 27.8557C22.806 28.0466 23.0508 28.2487 23.2766 28.3988C23.5208 28.5613 23.8427 28.7335 24.2545 28.7847L24.5634 26.3039C24.6888 26.3195 24.7412 26.3705 24.661 26.3172C24.6199 26.2898 24.5616 26.2472 24.4735 26.1779C24.3855 26.1086 24.2849 26.0264 24.1558 25.9208L22.5727 27.8557ZM22.4803 27.7721L22.4804 27.7721L24.2481 26.0043L24.2481 26.0043L22.4803 27.7721ZM21.6633 27.0081C21.422 27.0416 21.3269 26.9176 21.5546 27.0638C21.7735 27.2044 22.0679 27.4427 22.5727 27.8556L24.1558 25.9207C23.7004 25.5482 23.2748 25.1973 22.9055 24.9602C22.5449 24.7286 21.9934 24.4383 21.3194 24.5319L21.6633 27.0081ZM21.7797 26.9599C21.7457 26.9856 21.7056 27.0022 21.6633 27.0081L21.3194 24.5319C20.9389 24.5847 20.5784 24.7341 20.272 24.9657L21.7797 26.9599ZM21.736 28.2025C21.8009 27.5534 21.8406 27.1767 21.896 26.9224C21.9536 26.6579 21.9741 26.8129 21.7797 26.9599L20.272 24.9657C19.7291 25.3762 19.5445 25.9715 19.4533 26.3902C19.3599 26.8191 19.307 27.3682 19.2484 27.9537L21.736 28.2025ZM21.2035 30.0492C21.4586 29.7217 21.5645 29.3722 21.6223 29.0845C21.6758 28.8187 21.706 28.5026 21.736 28.2025L19.2484 27.9537C19.2318 28.1197 19.2188 28.2491 19.2056 28.3603C19.1923 28.4717 19.1812 28.5431 19.1714 28.5915C19.1524 28.686 19.1534 28.6129 19.2311 28.5131L21.2035 30.0492ZM20.6273 30.5706C20.8482 30.4316 21.0432 30.2551 21.2035 30.0492L19.2311 28.5131C19.2489 28.4902 19.2706 28.4706 19.2951 28.4552L20.6273 30.5706ZM18.7369 30.9167C19.0385 30.9167 19.356 30.9181 19.6258 30.8914C19.9178 30.8624 20.2761 30.7918 20.6273 30.5706L19.2951 28.4552C19.4021 28.3878 19.4749 28.3941 19.3791 28.4036C19.33 28.4085 19.2578 28.4124 19.1457 28.4145C19.0337 28.4167 18.9037 28.4167 18.7369 28.4167V30.9167ZM17.263 30.9167H18.7369V28.4167H17.263V30.9167ZM15.3729 30.5708C15.7241 30.7919 16.0823 30.8624 16.3742 30.8914C16.644 30.9181 16.9614 30.9167 17.263 30.9167V28.4167C17.0962 28.4167 16.9662 28.4167 16.8542 28.4145C16.7422 28.4124 16.67 28.4085 16.6209 28.4036C16.5251 28.3941 16.5979 28.3878 16.7048 28.4551L15.3729 30.5708ZM14.7963 30.049C14.9568 30.2551 15.1519 30.4316 15.3729 30.5708L16.7049 28.4551C16.7294 28.4706 16.7511 28.4902 16.7689 28.5131L14.7963 30.049ZM14.264 28.2027C14.294 28.5027 14.3242 28.8188 14.3777 29.0845C14.4355 29.3721 14.5414 29.7215 14.7963 30.049L16.7689 28.5131C16.8466 28.6129 16.8476 28.6859 16.8286 28.5916C16.8188 28.5431 16.8077 28.4717 16.7945 28.3605C16.7812 28.2492 16.7682 28.1199 16.7516 27.954L14.264 28.2027ZM14.2203 26.9604C14.026 26.8134 14.0464 26.6584 14.1041 26.9228C14.1595 27.1771 14.1991 27.5538 14.264 28.2027L16.7516 27.954C16.6931 27.3685 16.6402 26.8194 16.5467 26.3906C16.4555 25.9719 16.2709 25.3766 15.728 24.9661L14.2203 26.9604ZM14.3367 27.0086C14.2944 27.0027 14.2544 26.9861 14.2203 26.9604L15.728 24.9661C15.4217 24.7345 15.0611 24.5852 14.6807 24.5323L14.3367 27.0086ZM13.4273 27.8562C13.9321 27.4431 14.2265 27.2048 14.4455 27.0642C14.6732 26.918 14.578 27.0421 14.3367 27.0086L14.6807 24.5323C14.0067 24.4387 13.4552 24.7291 13.0946 24.9606C12.7253 25.1978 12.2996 25.5487 11.8442 25.9213L13.4273 27.8562ZM11.7454 28.7853C12.1572 28.734 12.4792 28.5618 12.7234 28.3994C12.9491 28.2492 13.1939 28.0471 13.4273 27.8562L11.8442 25.9213C11.7151 26.0269 11.6145 26.1091 11.5265 26.1784C11.4384 26.2477 11.3801 26.2904 11.3389 26.3177C11.2588 26.371 11.3111 26.32 11.4366 26.3044L11.7454 28.7853ZM10.9688 28.7465C11.2234 28.8044 11.4862 28.8175 11.7454 28.7853L11.4366 26.3044C11.4654 26.3008 11.4946 26.3023 11.5229 26.3087L10.9688 28.7465ZM9.38768 27.6547C9.60088 27.8679 9.82435 28.0934 10.034 28.2652C10.2609 28.4512 10.5641 28.6546 10.9687 28.7465L11.5229 26.3087C11.6462 26.3368 11.6932 26.3927 11.6187 26.3317C11.5805 26.3004 11.5267 26.2521 11.446 26.1744C11.3653 26.0967 11.2734 26.0048 11.1554 25.8869L9.38768 27.6547ZM9.33082 27.5939L9.33084 27.5939L11.2123 25.9477L11.2123 25.9477L9.33082 27.5939ZM8.34532 26.6123L9.38766 27.6547L11.1554 25.8869L10.1131 24.8446L8.34532 26.6123ZM8.37248 26.6387L8.37249 26.6387L10.0859 24.8182L10.0859 24.8182L8.37248 26.6387ZM7.25347 25.0313C7.34545 25.4359 7.54883 25.7391 7.73478 25.966C7.90662 26.1757 8.13211 26.3991 8.3453 26.6123L10.1131 24.8446C9.99515 24.7266 9.90327 24.6347 9.8256 24.554C9.74788 24.4733 9.69965 24.4195 9.66833 24.3813C9.60733 24.3068 9.66325 24.3538 9.69127 24.4771L7.25347 25.0313ZM7.21473 24.2546C7.18246 24.5138 7.19557 24.7766 7.25347 25.0313L9.69127 24.4771C9.6977 24.5054 9.69916 24.5346 9.69558 24.5634L7.21473 24.2546ZM8.14385 22.5727C7.95291 22.8061 7.75078 23.0509 7.60065 23.2766C7.4382 23.5208 7.26599 23.8428 7.21473 24.2546L9.69558 24.5634C9.67996 24.6889 9.62899 24.7412 9.68229 24.6611C9.70965 24.6199 9.75229 24.5616 9.82159 24.4735C9.89086 24.3855 9.97313 24.2849 10.0787 24.1558L8.14385 22.5727ZM8.14116 22.576L8.14115 22.576L10.0814 24.1525L10.0814 24.1525L8.14116 22.576ZM8.99142 21.6633C8.95789 21.422 9.08196 21.3269 8.93574 21.5546C8.79515 21.7735 8.55684 22.0679 8.14385 22.5727L10.0787 24.1558C10.4513 23.7004 10.8022 23.2748 11.0393 22.9054C11.2709 22.5449 11.5613 21.9934 11.4676 21.3194L8.99142 21.6633ZM9.03962 21.7797C9.01388 21.7457 8.99729 21.7056 8.99142 21.6633L11.4676 21.3194C11.4148 20.9389 11.2654 20.5783 11.0338 20.272L9.03962 21.7797ZM7.79731 21.736C8.44625 21.8009 8.82294 21.8406 9.07715 21.896C9.34154 21.9536 9.18657 21.9741 9.03962 21.7797L11.0338 20.272C10.6234 19.7291 10.0281 19.5445 9.60942 19.4533C9.18058 19.3598 8.63149 19.307 8.04607 19.2484L7.79731 21.736ZM7.92168 21.7422H7.92169V19.2422H7.92168V21.7422ZM5.95112 21.2038C6.27856 21.4587 6.62794 21.5645 6.91551 21.6224C7.18127 21.6758 7.49729 21.706 7.7973 21.736L8.04606 19.2484C7.88012 19.2318 7.75079 19.2188 7.63958 19.2056C7.52831 19.1923 7.45691 19.1812 7.40848 19.1715C7.31413 19.1525 7.38718 19.1535 7.48692 19.2311L5.95112 21.2038ZM5.42924 20.6271C5.56841 20.8482 5.74501 21.0433 5.95112 21.2038L7.48692 19.2311C7.50982 19.2489 7.52945 19.2706 7.54491 19.2952L5.42924 20.6271ZM5.08334 18.7371C5.08334 19.0386 5.08191 19.3561 5.10866 19.6258C5.1376 19.9177 5.20816 20.2759 5.42924 20.6271L7.54491 19.2952C7.61226 19.4022 7.60596 19.475 7.59646 19.3792C7.59159 19.33 7.58765 19.2579 7.58552 19.1458C7.58339 19.0339 7.58334 18.9039 7.58334 18.7371H5.08334ZM5.08334 17.2631V18.7371H7.58334V17.2631H5.08334ZM5.42938 15.3728C5.20822 15.724 5.13762 16.0822 5.10867 16.3742C5.08191 16.644 5.08334 16.9615 5.08334 17.2631H7.58334C7.58334 17.0963 7.58339 16.9663 7.58552 16.8543C7.58765 16.7422 7.59159 16.6701 7.59647 16.6209C7.60597 16.5251 7.61227 16.5979 7.54489 16.7049L5.42938 15.3728ZM5.95092 14.7965C5.74496 14.9569 5.56848 15.1519 5.42938 15.3728L7.5449 16.7049C7.52944 16.7295 7.50983 16.7511 7.48695 16.7689L5.95092 14.7965ZM7.79744 14.2641C7.49737 14.2941 7.18129 14.3242 6.91547 14.3777C6.62784 14.4356 6.27839 14.5415 5.95091 14.7965L7.48695 16.7689C7.38719 16.8466 7.31412 16.8476 7.40849 16.8286C7.45693 16.8189 7.52834 16.8078 7.63964 16.7945C7.75087 16.7812 7.88023 16.7683 8.0462 16.7517L7.79744 14.2641ZM9.04003 14.2204C9.18697 14.026 9.342 14.0464 9.07756 14.1041C8.8233 14.1595 8.44653 14.1992 7.79744 14.2641L8.0462 16.7517C8.63175 16.6931 9.18096 16.6402 9.60988 16.5467C10.0286 16.4555 10.6241 16.2708 11.0345 15.7278L9.04003 14.2204ZM8.99186 14.3367C8.99773 14.2944 9.01432 14.2544 9.04003 14.2204L11.0345 15.7278C11.2659 15.4216 11.4152 15.0612 11.468 14.681L8.99186 14.3367ZM8.14405 13.427C8.55714 13.9319 8.79551 14.2264 8.93614 14.4454C9.0824 14.6732 8.95829 14.5781 8.99186 14.3367L11.468 14.681C11.5618 14.0069 11.2713 13.4552 11.0398 13.0946C10.8026 12.7252 10.4516 12.2994 10.0789 11.8439L8.14405 13.427ZM7.21474 11.7446C7.26595 12.1566 7.4382 12.4786 7.60069 12.7229C7.75085 12.9487 7.95305 13.1936 8.14405 13.427L10.0789 11.8439C9.9733 11.7148 9.891 11.6142 9.82171 11.5261C9.75238 11.438 9.70973 11.3797 9.68236 11.3385C9.62904 11.2583 9.68003 11.3107 9.69563 11.4362L7.21474 11.7446ZM7.25344 10.9686C7.19564 11.2231 7.18254 11.4857 7.21474 11.7447L9.69563 11.4362C9.69921 11.465 9.69776 11.4941 9.69133 11.5224L7.25344 10.9686ZM8.34551 9.38709C8.13225 9.60036 7.90669 9.82389 7.7348 10.0336C7.54882 10.2606 7.34539 10.5638 7.25344 10.9686L9.69133 11.5224C9.66332 11.6457 9.60738 11.6928 9.6684 11.6183C9.69972 11.5801 9.74797 11.5263 9.82571 11.4455C9.90341 11.3648 9.99532 11.2728 10.1133 11.1549L8.34551 9.38709ZM9.38772 8.34489L8.34551 9.38709L10.1133 11.1549L11.1555 10.1127L9.38772 8.34489ZM9.38772 8.34489L9.38772 8.34489L11.1555 10.1127L11.1555 10.1127L9.38772 8.34489ZM10.9688 7.25302C10.5641 7.34501 10.2609 7.5484 10.0341 7.73434C9.82439 7.90619 9.60092 8.13168 9.38772 8.34489L11.1555 10.1127C11.2734 9.99473 11.3654 9.90285 11.446 9.82517C11.5268 9.74745 11.5806 9.69921 11.6188 9.66789C11.6932 9.60689 11.6462 9.66281 11.5229 9.69083L10.9688 7.25302ZM11.7455 7.21429C11.4863 7.18202 11.2235 7.19513 10.9688 7.25302L11.5229 9.69083C11.4946 9.69727 11.4654 9.69872 11.4366 9.69514L11.7455 7.21429ZM13.4274 8.14348C13.1941 7.95253 12.9492 7.75037 12.7235 7.60023C12.4792 7.43778 12.1573 7.26555 11.7455 7.21429L11.4366 9.69514C11.3112 9.67952 11.2588 9.62854 11.339 9.68186C11.3802 9.70923 11.4385 9.75188 11.5266 9.8212C11.6146 9.89047 11.7153 9.97276 11.8444 10.0784L13.4274 8.14348ZM14.3368 8.991C14.5781 8.95752 14.6732 9.08157 14.4455 8.93532C14.2266 8.79473 13.9322 8.55643 13.4274 8.14348L11.8444 10.0784C12.2997 10.4509 12.7253 10.8017 13.0945 11.0389C13.455 11.2704 14.0064 11.5608 14.6803 11.4673L14.3368 8.991ZM14.2203 9.03924C14.2544 9.01347 14.2945 8.99687 14.3368 8.991L14.6803 11.4673C15.061 11.4145 15.4219 11.265 15.7284 11.0331L14.2203 9.03924ZM14.2641 7.79719C14.1992 8.44599 14.1595 8.8226 14.1041 9.07677C14.0465 9.34111 14.0261 9.18618 14.2203 9.03924L15.7284 11.0331C16.2711 10.6227 16.4556 10.0275 16.5468 9.60897C16.6402 9.18022 16.6931 8.63124 16.7516 8.04594L14.2641 7.79719ZM14.7961 5.95136C14.5413 6.27876 14.4355 6.62808 14.3776 6.91558C14.3242 7.18129 14.294 7.49724 14.2641 7.79718L16.7516 8.04594C16.7682 7.88004 16.7812 7.75074 16.7945 7.63956C16.8077 7.5283 16.8188 7.45692 16.8286 7.4085C16.8475 7.31417 16.8466 7.3872 16.7689 7.48693L14.7961 5.95136ZM15.3732 5.42913C15.1519 5.56837 14.9567 5.74509 14.7961 5.95136L16.7689 7.48693C16.7511 7.50985 16.7294 7.52949 16.7048 7.54496L15.3732 5.42913ZM17.2628 5.08337C16.9613 5.08337 16.644 5.08194 16.3743 5.10868C16.0824 5.13761 15.7243 5.20814 15.3732 5.42913L16.7048 7.54496C16.5979 7.61228 16.5251 7.60598 16.6208 7.59649C16.67 7.59161 16.7421 7.58768 16.8541 7.58555C16.9661 7.58342 17.0961 7.58337 17.2628 7.58337V5.08337ZM18.7371 5.08337H17.2628V7.58337H18.7371V5.08337ZM20.6271 5.42928C20.2759 5.2082 19.9177 5.13763 19.6258 5.10869C19.356 5.08194 19.0386 5.08337 18.7371 5.08337V7.58337C18.9038 7.58337 19.0338 7.58342 19.1458 7.58555C19.2578 7.58768 19.33 7.59162 19.3792 7.59649C19.4749 7.60599 19.4021 7.61229 19.2952 7.54494L20.6271 5.42928ZM21.2037 5.95115C21.0433 5.74503 20.8481 5.56844 20.6271 5.42928L19.2952 7.54494C19.2706 7.52948 19.2489 7.50986 19.2311 7.48695L21.2037 5.95115ZM21.4167 18C21.4167 19.887 19.887 21.4167 18 21.4167V23.9167C21.2677 23.9167 23.9167 21.2677 23.9167 18H21.4167ZM18 14.5834C19.887 14.5834 21.4167 16.1131 21.4167 18H23.9167C23.9167 14.7324 21.2677 12.0834 18 12.0834V14.5834ZM14.5833 18C14.5833 16.1131 16.113 14.5834 18 14.5834V12.0834C14.7323 12.0834 12.0833 14.7324 12.0833 18H14.5833ZM18 21.4167C16.113 21.4167 14.5833 19.887 14.5833 18H12.0833C12.0833 21.2677 14.7323 23.9167 18 23.9167V21.4167Z" fill="#CCCCCC"/>
</svg>
