<svg width="37" height="38" viewBox="0 0 37 38" fill="none" xmlns="http://www.w3.org/2000/svg">
<path d="M30.8334 19.0659C30.8334 19.6512 30.3984 20.135 29.834 20.2116L29.6771 20.2221L6.55212 20.2221C5.91355 20.2221 5.39587 19.7044 5.39587 19.0659C5.39587 18.4805 5.83086 17.9967 6.39523 17.9202L6.55212 17.9096L29.6771 17.9096C30.3157 17.9096 30.8334 18.4273 30.8334 19.0659Z" fill="#4AA18B"/>
<path d="M16.6947 27.5341C17.1472 27.9847 17.1488 28.7168 16.6983 29.1693C16.2886 29.5807 15.6464 29.6194 15.193 29.2845L15.0631 29.1728L5.73599 19.8858C5.32339 19.475 5.28585 18.8304 5.62341 18.3771L5.73592 18.2472L15.063 8.95867C15.5155 8.50806 16.2476 8.50958 16.6982 8.96206C17.1078 9.3734 17.1438 10.0158 16.807 10.4678L16.6948 10.5972L8.19092 19.067L16.6947 27.5341Z" fill="#4AA18B"/>
</svg>
