<svg width="38" height="38" viewBox="0 0 38 38" fill="none" xmlns="http://www.w3.org/2000/svg">
<path d="M6.6665 18.2428C6.6665 17.6574 7.10149 17.1737 7.66586 17.0971L7.82275 17.0865H30.9478C31.5863 17.0865 32.104 17.6042 32.104 18.2428C32.104 18.8282 31.669 19.3119 31.1046 19.3885L30.9478 19.399H7.82275C7.18417 19.399 6.6665 18.8814 6.6665 18.2428Z" fill="black"/>
<path d="M20.8053 9.77457C20.3527 9.324 20.3512 8.5919 20.8017 8.13939C21.2114 7.72801 21.8536 7.68931 22.307 8.02419L22.4369 8.13587L31.764 17.4229C32.1766 17.8337 32.2141 18.4783 31.8766 18.9317L31.7641 19.0615L22.437 28.35C21.9845 28.8007 21.2524 28.7991 20.8018 28.3467C20.3922 27.9353 20.3562 27.2929 20.693 26.8409L20.8052 26.7115L29.3091 18.2418L20.8053 9.77457Z" fill="black"/>
</svg>
