<svg width="26" height="26" viewBox="0 0 26 26" fill="none" xmlns="http://www.w3.org/2000/svg">
<circle cx="12.9285" cy="13.1985" r="12.5" fill="black"/>
<mask id="mask0_452_1044" style="mask-type:alpha" maskUnits="userSpaceOnUse" x="7" y="6" width="13" height="14">
<rect x="7.30371" y="6.80176" width="12.614" height="12.614" fill="#D9D9D9"/>
</mask>
<g mask="url(#mask0_452_1044)">
<path d="M9.93154 17.8391C9.64247 17.8391 9.39501 17.7361 9.18915 17.5303C8.9833 17.3244 8.88037 17.077 8.88037 16.7879V9.42971C8.88037 9.14064 8.9833 8.89317 9.18915 8.68732C9.39501 8.48147 9.64247 8.37854 9.93154 8.37854H13.6106V9.42971H9.93154V16.7879H13.6106V17.8391H9.93154ZM15.713 15.7367L14.9903 14.9746L16.3305 13.6344H12.0339V12.5832H16.3305L14.9903 11.243L15.713 10.4809L18.3409 13.1088L15.713 15.7367Z" fill="white"/>
</g>
</svg>
