<svg width="25" height="25" viewBox="0 0 25 25" fill="none" xmlns="http://www.w3.org/2000/svg">
<path fill-rule="evenodd" clip-rule="evenodd" d="M12.5 0C5.59644 0 0 5.59644 0 12.5C0 19.4036 5.59644 25 12.5 25C19.4036 25 25 19.4036 25 12.5C25 5.59644 19.4036 0 12.5 0ZM8.5 8.56763V9.09833C8.40987 9.10459 8.32291 9.11212 8.23919 9.12119C7.71342 9.17815 7.19839 9.3051 6.73664 9.64058C6.48196 9.82561 6.25799 10.0496 6.07295 10.3043C5.73747 10.766 5.61053 11.281 5.55356 11.8068C5.49994 12.3018 5.49997 12.9101 5.5 13.6157V13.6157L5.5 13.6676L5.5 13.7233C5.49998 14.8009 5.49996 15.6899 5.57744 16.405C5.65827 17.1511 5.83296 17.8256 6.26393 18.4188C6.51065 18.7583 6.80928 19.057 7.14886 19.3037C7.74204 19.7347 8.41652 19.9094 9.16264 19.9902C9.87777 20.0677 10.7668 20.0676 11.8443 20.0676H11.9H13.1H13.1557C14.2332 20.0676 15.1222 20.0677 15.8374 19.9902C16.5835 19.9094 17.258 19.7347 17.8511 19.3037C18.1907 19.057 18.4893 18.7583 18.7361 18.4188C19.167 17.8256 19.3417 17.1511 19.4226 16.405C19.5 15.6899 19.5 14.8008 19.5 13.7233V13.6676L19.5 13.6157C19.5 12.9101 19.5001 12.3018 19.4464 11.8068C19.3895 11.281 19.2625 10.766 18.9271 10.3043C18.742 10.0496 18.518 9.82561 18.2634 9.64058C17.8016 9.3051 17.2866 9.17815 16.7608 9.12119C16.6771 9.11212 16.5901 9.10459 16.5 9.09833V8.56763C16.5 6.35849 14.7091 4.56763 12.5 4.56763C10.2909 4.56763 8.5 6.35849 8.5 8.56763ZM10.5 8.56763V9.06763H14.5V8.56763C14.5 7.46306 13.6046 6.56763 12.5 6.56763C11.3954 6.56763 10.5 7.46306 10.5 8.56763ZM7.91221 11.2586C7.9762 11.2121 8.09901 11.1481 8.45462 11.1096C8.82894 11.069 9.32778 11.0676 10.1 11.0676H14.9C15.6722 11.0676 16.1711 11.069 16.5454 11.1096C16.901 11.1481 17.0238 11.2121 17.0878 11.2586C17.1727 11.3203 17.2473 11.3949 17.309 11.4798C17.3555 11.5438 17.4195 11.6666 17.4581 12.0222C17.4986 12.3966 17.5 12.8954 17.5 13.6676C17.5 14.8148 17.4986 15.5949 17.4342 16.1896C17.3718 16.7655 17.26 17.0478 17.118 17.2432C16.9947 17.413 16.8454 17.5623 16.6756 17.6857C16.4802 17.8276 16.1979 17.9394 15.6219 18.0018C15.0273 18.0663 14.2472 18.0676 13.1 18.0676H11.9C10.7528 18.0676 9.97273 18.0663 9.37807 18.0018C8.80212 17.9394 8.51985 17.8276 8.32443 17.6857C8.15464 17.5623 8.00533 17.413 7.88197 17.2432C7.73999 17.0478 7.6282 16.7655 7.5658 16.1896C7.50137 15.5949 7.5 14.8148 7.5 13.6676C7.5 12.8954 7.50137 12.3966 7.54193 12.0222C7.58046 11.6666 7.64449 11.5438 7.69098 11.4798C7.75266 11.3949 7.82732 11.3203 7.91221 11.2586ZM12.5 16.0676C13.3284 16.0676 14 15.3961 14 14.5676C14 13.7392 13.3284 13.0676 12.5 13.0676C11.6716 13.0676 11 13.7392 11 14.5676C11 15.3961 11.6716 16.0676 12.5 16.0676Z" fill="black"/>
</svg>
