<svg width="36" height="36" viewBox="0 0 36 36" fill="none" xmlns="http://www.w3.org/2000/svg">
<path d="M5.25 14.3334C5.25 13.3906 5.25 12.9192 5.54289 12.6263C5.83579 12.3334 6.30719 12.3334 7.25 12.3334H28.75C29.6928 12.3334 30.1642 12.3334 30.4571 12.6263C30.75 12.9192 30.75 13.3906 30.75 14.3334V17.4167C30.75 18.3595 30.75 18.8309 30.4571 19.1238C30.1642 19.4167 29.6928 19.4167 28.75 19.4167H28.5C27.5572 19.4167 27.0858 19.4167 26.7929 19.7096C26.5 20.0025 26.5 20.4739 26.5 21.4167V27.3334C26.5 28.2762 26.5 28.7476 26.2071 29.0405C25.9142 29.3334 25.4428 29.3334 24.5 29.3334H11.5C10.5572 29.3334 10.0858 29.3334 9.79289 29.0405C9.5 28.7476 9.5 28.2762 9.5 27.3334V21.4167C9.5 20.4739 9.5 20.0025 9.20711 19.7096C8.91421 19.4167 8.44281 19.4167 7.5 19.4167H7.25C6.30719 19.4167 5.83579 19.4167 5.54289 19.1238C5.25 18.8309 5.25 18.3595 5.25 17.4167V14.3334Z" stroke="#CCCCCC" stroke-width="2.5"/>
<path d="M8.08334 19.4166H27.9167" stroke="#CCCCCC" stroke-width="2.5" stroke-linecap="round"/>
<path d="M18 10.9166L18 29.3333" stroke="#CCCCCC" stroke-width="2.5" stroke-linecap="round"/>
<path d="M18 10.9167L16.2945 9.21118C15.087 8.00366 13.6149 7.09386 11.9949 6.55384L10.7158 6.12749C9.42074 5.6958 8.08334 6.65974 8.08334 8.02485V9.47515C8.08334 10.336 8.6342 11.1003 9.45089 11.3725L12.3333 12.3333" stroke="#CCCCCC" stroke-width="2.5" stroke-linecap="round"/>
<path d="M18 10.9167L19.7055 9.21118C20.913 8.00366 22.3851 7.09386 24.0052 6.55384L25.2842 6.12749C26.5793 5.6958 27.9167 6.65974 27.9167 8.02485V9.47515C27.9167 10.336 27.3658 11.1003 26.5491 11.3725L23.6667 12.3333" stroke="#CCCCCC" stroke-width="2.5" stroke-linecap="round"/>
</svg>
