<svg width="137" height="137" viewBox="0 0 137 137" fill="none" xmlns="http://www.w3.org/2000/svg">
<g filter="url(#filter0_d_497_1247)">
<circle cx="68.4585" cy="68.3721" r="59.085" fill="white"/>
</g>
<g filter="url(#filter1_i_497_1247)">
<path d="M41.533 27.8944C41.2924 27.592 40.9932 27.43 40.6354 27.4084C40.2776 27.3869 39.8911 27.5111 39.4758 27.7809C39.1936 27.9643 38.9812 28.1592 38.8385 28.3656C38.6942 28.5694 38.615 28.7744 38.6008 28.9808C38.5893 29.1854 38.6404 29.3759 38.7542 29.5522C38.8437 29.7025 38.9571 29.8108 39.0944 29.8771C39.2343 29.9416 39.39 29.9751 39.5615 29.9773C39.7313 29.977 39.9138 29.9551 40.1088 29.9118C40.302 29.8658 40.5008 29.8049 40.705 29.7291L41.5536 29.4279C41.9621 29.2762 42.3585 29.1703 42.7429 29.1101C43.1273 29.0499 43.4916 29.0463 43.8358 29.0995C44.1799 29.1526 44.4973 29.2725 44.7878 29.4591C45.0809 29.6439 45.3392 29.9064 45.5626 30.2466C45.8841 30.7505 46.0374 31.2689 46.0224 31.8018C46.0084 32.3304 45.8299 32.8501 45.4871 33.3611C45.1452 33.8676 44.6414 34.3371 43.9759 34.7696C43.3156 35.1986 42.6751 35.4708 42.0541 35.5861C41.4359 35.6997 40.8612 35.6465 40.3301 35.4267C39.7999 35.2025 39.3376 34.7996 38.9432 34.218L40.6165 33.1307C40.8127 33.3937 41.0395 33.5724 41.2969 33.6667C41.5553 33.7566 41.8318 33.7723 42.1264 33.7135C42.422 33.6504 42.7189 33.5219 43.017 33.3282C43.3099 33.1379 43.5365 32.9299 43.697 32.7043C43.8601 32.477 43.9525 32.2483 43.974 32.0182C43.9955 31.7881 43.9425 31.5742 43.8149 31.3765C43.6959 31.1923 43.5413 31.0728 43.3511 31.0182C43.1636 30.9618 42.9375 30.9571 42.673 31.0038C42.4111 31.0489 42.1078 31.1323 41.7631 31.2539L40.7277 31.6082C39.9295 31.888 39.2153 31.9787 38.5849 31.8802C37.9545 31.7818 37.4449 31.4285 37.0562 30.8205C36.7328 30.3254 36.5844 29.8057 36.6109 29.2615C36.6401 28.7155 36.8218 28.1861 37.1559 27.6733C37.4899 27.1604 37.9551 26.7103 38.5515 26.3228C39.1585 25.9284 39.7555 25.6883 40.3426 25.6025C40.9323 25.515 41.4735 25.5748 41.9661 25.7817C42.4587 25.9886 42.8668 26.3339 43.1903 26.8175L41.533 27.8944Z" fill="#BFBFBF"/>
<path d="M52.3519 30.5209C51.6534 30.7911 50.9956 30.875 50.3783 30.7726C49.7629 30.6662 49.2185 30.3993 48.745 29.9719C48.2743 29.5434 47.9062 28.9832 47.6403 28.2914C47.3711 27.5906 47.2696 26.9239 47.3358 26.2912C47.4039 25.6544 47.631 25.0908 48.0171 24.6004C48.402 24.1071 48.9392 23.727 49.6288 23.4603C50.2238 23.2303 50.7863 23.1372 51.3164 23.1811C51.8466 23.225 52.3172 23.3926 52.7283 23.6838C53.1393 23.9751 53.4597 24.3798 53.6894 24.898L51.9048 25.5882C51.7233 25.2662 51.4846 25.0431 51.1886 24.9188C50.8945 24.7904 50.5744 24.7931 50.2281 24.9271C49.9351 25.0404 49.7099 25.2195 49.5525 25.4646C49.3969 25.7055 49.3166 26.0009 49.3116 26.3507C49.3067 26.7005 49.3869 27.0907 49.5523 27.5213C49.72 27.9577 49.9218 28.306 50.1577 28.566C50.3966 28.825 50.6563 28.9922 50.937 29.0679C51.2176 29.1435 51.5044 29.1247 51.7973 29.0114C52.0134 28.9278 52.1901 28.8083 52.3276 28.6529C52.468 28.4962 52.5619 28.3115 52.6093 28.0988C52.6586 27.8819 52.6548 27.6463 52.5978 27.3921L54.3825 26.7019C54.5537 27.2359 54.5885 27.7511 54.4868 28.2475C54.387 28.7397 54.1579 29.183 53.7995 29.5774C53.4411 29.9718 52.9586 30.2863 52.3519 30.5209Z" fill="#BFBFBF"/>
<path d="M59.5807 28.4154C59.1219 28.4987 58.6986 28.4931 58.3108 28.3986C57.9225 28.301 57.5953 28.113 57.3291 27.8347C57.0655 27.5527 56.8907 27.1738 56.8048 26.6978C56.7325 26.2969 56.7451 25.947 56.8426 25.6479C56.9401 25.3488 57.1003 25.0933 57.3232 24.8815C57.5461 24.6696 57.8106 24.4922 58.1168 24.3492C58.4262 24.2057 58.7556 24.0844 59.1052 23.9854C59.5155 23.8655 59.8453 23.7636 60.0945 23.6795C60.343 23.5923 60.518 23.4991 60.6193 23.3999C60.7207 23.3006 60.7575 23.1742 60.7299 23.0208L60.7248 22.9926C60.6711 22.6951 60.5359 22.482 60.3192 22.3532C60.1057 22.2238 59.8289 22.19 59.4887 22.2518C59.1297 22.317 58.8586 22.4487 58.6752 22.647C58.4912 22.8421 58.3863 23.0649 58.3606 23.3153L56.4889 23.5001C56.5034 23.0447 56.6191 22.6323 56.8362 22.263C57.0526 21.8906 57.3623 21.5789 57.765 21.3278C58.1703 21.0731 58.6601 20.8936 59.2344 20.7893C59.6339 20.7167 60.0248 20.6942 60.4068 20.7218C60.7921 20.7489 61.1445 20.8353 61.4642 20.9809C61.7869 21.1261 62.0589 21.3386 62.2803 21.6186C62.5011 21.8954 62.6503 22.2483 62.7277 22.6773L63.6058 27.5435L61.7144 27.8871L61.5338 26.8866L61.4776 26.8968C61.4028 27.1433 61.2842 27.3702 61.1218 27.5775C60.9588 27.7818 60.7503 27.9571 60.4963 28.1035C60.2417 28.2467 59.9365 28.3507 59.5807 28.4154ZM59.9026 26.9307C60.196 26.8774 60.4447 26.7724 60.6485 26.6157C60.8517 26.4559 60.9992 26.2641 61.091 26.0405C61.1828 25.8168 61.2058 25.5782 61.1601 25.3246L61.0219 24.5589C60.9668 24.6109 60.8878 24.6641 60.7848 24.7184C60.6843 24.769 60.5695 24.8206 60.4404 24.8732C60.3107 24.9226 60.1807 24.9704 60.0504 25.0167C59.9197 25.0599 59.801 25.0993 59.6946 25.1347C59.4667 25.2117 59.2722 25.3036 59.111 25.4106C58.9497 25.5175 58.8323 25.6439 58.7587 25.7898C58.6846 25.9326 58.6645 26.098 58.6984 26.2859C58.7476 26.5583 58.8834 26.7487 59.106 26.8571C59.3312 26.9617 59.5968 26.9862 59.9026 26.9307Z" fill="#BFBFBF"/>
<path d="M68.2943 23.1411L68.1977 27.3788L66.1714 27.3323L66.3385 20.0022L68.2697 20.0465L68.2402 21.3398L68.3258 21.3418C68.4972 20.9191 68.776 20.5881 69.1623 20.3487C69.5485 20.1061 70.0127 19.991 70.555 20.0035C71.0624 20.0151 71.5022 20.1366 71.8744 20.368C72.2468 20.5993 72.5328 20.9242 72.7326 21.3426C72.9326 21.7578 73.0261 22.2502 73.0131 22.8197L72.9067 27.4869L70.8804 27.4404L70.9785 23.1359C70.9919 22.6873 70.8857 22.3348 70.66 22.0781C70.4343 21.8183 70.1185 21.6837 69.7126 21.6744C69.4399 21.6681 69.1976 21.7215 68.9856 21.8344C68.7768 21.9474 68.6111 22.1154 68.4887 22.3386C68.3695 22.5587 68.3046 22.8262 68.2943 23.1411Z" fill="#BFBFBF"/>
<path d="M83.6814 26.4184L85.3375 26.9885L85.8025 28.3498L86.2942 29.5889L87.1739 32.0617L85.3557 31.4359L84.7414 29.7609L84.4625 28.7969L83.6814 26.4184ZM89.154 26.7278C88.8091 27.7362 88.3252 28.5284 87.7023 29.1047C87.0823 29.6819 86.3816 30.0446 85.5998 30.1927C84.8222 30.3388 84.0268 30.2719 83.2138 29.992C82.3947 29.71 81.7235 29.2704 81.2001 28.673C80.6767 28.0757 80.347 27.3582 80.2109 26.5207C80.0747 25.6832 80.1786 24.7618 80.5224 23.7565C80.8673 22.7481 81.3496 21.9553 81.9696 21.3781C82.5895 20.8008 83.2884 20.4391 84.066 20.293C84.8447 20.1439 85.6435 20.2103 86.4626 20.4923C87.2757 20.7721 87.9439 21.2108 88.4672 21.8081C88.9947 22.4035 89.3264 23.12 89.4626 23.9575C89.6017 24.796 89.4988 25.7194 89.154 26.7278ZM87.1783 26.0477C87.4017 25.3945 87.4926 24.8101 87.4509 24.2945C87.4124 23.7799 87.2571 23.3463 86.9854 22.9937C86.7136 22.6411 86.3422 22.3837 85.8712 22.2215C85.4001 22.0594 84.9495 22.0338 84.5192 22.1447C84.0889 22.2557 83.6996 22.5018 83.3512 22.8832C83.0058 23.2656 82.7214 23.7834 82.498 24.4365C82.2746 25.0897 82.1823 25.6736 82.2209 26.1882C82.2626 26.7038 82.4192 27.138 82.691 27.4906C82.9628 27.8432 83.3341 28.1006 83.8052 28.2628C84.2762 28.4249 84.7269 28.4505 85.1571 28.3396C85.5874 28.2286 85.9753 27.9819 86.3206 27.5995C86.6691 27.2182 86.9549 26.7009 87.1783 26.0477Z" fill="#BFBFBF"/>
<path d="M90.0081 32.6392L95.3212 24.4443L98.5438 26.5474C99.1606 26.95 99.6153 27.4042 99.9078 27.9102C100.205 28.4153 100.337 28.9438 100.304 29.4959C100.276 30.047 100.087 30.5933 99.7356 31.1348C99.3827 31.679 98.9622 32.0708 98.474 32.3102C97.9875 32.547 97.4548 32.6246 96.8759 32.5428C96.2996 32.4629 95.6977 32.2181 95.0702 31.8086L92.9126 30.4005L93.8154 29.008L95.6939 30.2339C96.0236 30.4491 96.3268 30.5825 96.6036 30.634C96.8805 30.6857 97.1309 30.6555 97.3549 30.5435C97.5815 30.4332 97.7821 30.2434 97.9568 29.9739C98.1332 29.7018 98.2275 29.4369 98.2395 29.179C98.2542 28.9228 98.1824 28.6748 98.0239 28.4347C97.8699 28.1937 97.6267 27.9647 97.2943 27.7478L96.1298 26.9878L91.7351 33.7662L90.0081 32.6392ZM96.837 31.7886L96.4492 36.8428L94.5428 35.5986L94.9745 30.5731L96.837 31.7886Z" fill="#BFBFBF"/>
</g>
<mask id="mask0_497_1247" style="mask-type:alpha" maskUnits="userSpaceOnUse" x="38" y="38" width="61" height="61">
<rect x="38.1377" y="38.2092" width="60.6425" height="60.3256" fill="#D9D9D9"/>
</mask>
<g mask="url(#mask0_497_1247)">
<path d="M43.1919 55.8038V43.236H55.8257V48.2631H48.2454V55.8038H43.1919ZM43.1919 93.5073V80.9394H48.2454V88.4801H55.8257V93.5073H43.1919ZM81.0934 93.5073V88.4801H88.6737V80.9394H93.7273V93.5073H81.0934ZM88.6737 55.8038V48.2631H81.0934V43.236H93.7273V55.8038H88.6737ZM82.3568 82.1962H86.147V85.9666H82.3568V82.1962ZM82.3568 74.6555H86.147V78.4259H82.3568V74.6555ZM78.5667 78.4259H82.3568V82.1962H78.5667V78.4259ZM74.7765 82.1962H78.5667V85.9666H74.7765V82.1962ZM70.9864 78.4259H74.7765V82.1962H70.9864V78.4259ZM78.5667 70.8852H82.3568V74.6555H78.5667V70.8852ZM74.7765 74.6555H78.5667V78.4259H74.7765V74.6555ZM70.9864 70.8852H74.7765V74.6555H70.9864V70.8852ZM86.147 50.7767V65.858H70.9864V50.7767H86.147ZM65.9328 70.8852V85.9666H50.7722V70.8852H65.9328ZM65.9328 50.7767V65.858H50.7722V50.7767H65.9328ZM62.1427 82.1962V74.6555H54.5624V82.1962H62.1427ZM62.1427 62.0877V54.547H54.5624V62.0877H62.1427ZM82.3568 62.0877V54.547H74.7765V62.0877H82.3568Z" fill="#1C1B1F"/>
</g>
<defs>
<filter id="filter0_d_497_1247" x="0.373535" y="0.287109" width="136.17" height="136.17" filterUnits="userSpaceOnUse" color-interpolation-filters="sRGB">
<feFlood flood-opacity="0" result="BackgroundImageFix"/>
<feColorMatrix in="SourceAlpha" type="matrix" values="0 0 0 0 0 0 0 0 0 0 0 0 0 0 0 0 0 0 127 0" result="hardAlpha"/>
<feMorphology radius="5" operator="dilate" in="SourceAlpha" result="effect1_dropShadow_497_1247"/>
<feOffset/>
<feGaussianBlur stdDeviation="2"/>
<feComposite in2="hardAlpha" operator="out"/>
<feColorMatrix type="matrix" values="0 0 0 0 0.721141 0 0 0 0 0.721141 0 0 0 0 0.721141 0 0 0 1 0"/>
<feBlend mode="normal" in2="BackgroundImageFix" result="effect1_dropShadow_497_1247"/>
<feBlend mode="normal" in="SourceGraphic" in2="effect1_dropShadow_497_1247" result="shape"/>
</filter>
<filter id="filter1_i_497_1247" x="36.6079" y="20.0022" width="64.7012" height="17.8406" filterUnits="userSpaceOnUse" color-interpolation-filters="sRGB">
<feFlood flood-opacity="0" result="BackgroundImageFix"/>
<feBlend mode="normal" in="SourceGraphic" in2="BackgroundImageFix" result="shape"/>
<feColorMatrix in="SourceAlpha" type="matrix" values="0 0 0 0 0 0 0 0 0 0 0 0 0 0 0 0 0 0 127 0" result="hardAlpha"/>
<feOffset dx="1" dy="1"/>
<feGaussianBlur stdDeviation="1.5"/>
<feComposite in2="hardAlpha" operator="arithmetic" k2="-1" k3="1"/>
<feColorMatrix type="matrix" values="0 0 0 0 0 0 0 0 0 0 0 0 0 0 0 0 0 0 0.33 0"/>
<feBlend mode="normal" in2="shape" result="effect1_innerShadow_497_1247"/>
</filter>
</defs>
</svg>
