<svg width="222" height="222" viewBox="0 0 222 222" fill="none" xmlns="http://www.w3.org/2000/svg">
<g filter="url(#filter0_d_421_847)">
<circle cx="110.75" cy="101.583" r="80.6953" fill="white"/>
</g>
<g filter="url(#filter1_f_421_847)">
<path d="M163.685 97.6474C177.677 94.1374 186.489 79.5653 178.71 67.4162C173.907 59.913 167.861 53.2065 160.776 47.6087C146.798 36.5645 129.557 30.4564 111.743 30.2371C93.9298 30.0178 76.5443 35.6995 62.298 46.3962C55.0772 51.8179 48.8686 58.3734 43.8816 65.7561C35.8066 77.7101 44.2564 92.4947 58.158 96.3481L65.3316 98.3366C75.2713 101.092 85.4165 94.3647 93.6648 88.1715C98.6883 84.3996 104.819 82.3961 111.1 82.4735C117.382 82.5508 123.461 84.7046 128.39 88.5991C136.484 94.9934 146.46 101.968 156.465 99.4586L163.685 97.6474Z" fill="#C5C5C5" fill-opacity="0.29"/>
</g>
<path d="M114.52 135.841V128.301H122.06V135.841H114.52ZM106.98 128.301V109.451H114.52V128.301H106.98ZM137.14 116.991V101.911H144.68V116.991H137.14ZM129.6 101.911V94.3712H137.14V101.911H129.6ZM84.36 109.451V101.911H91.9V109.451H84.36ZM76.82 101.911V94.3712H84.36V101.911H76.82ZM110.75 75.5212V67.9812H118.29V75.5212H110.75ZM82.475 84.9462H93.785V73.6362H82.475V84.9462ZM76.82 90.6012V67.9812H99.44V90.6012H76.82ZM82.475 130.186H93.785V118.876H82.475V130.186ZM76.82 135.841V113.221H99.44V135.841H76.82ZM127.715 84.9462H139.025V73.6362H127.715V84.9462ZM122.06 90.6012V67.9812H144.68V90.6012H122.06ZM129.6 135.841V124.531H122.06V116.991H137.14V128.301H144.68V135.841H129.6ZM114.52 109.451V101.911H129.6V109.451H114.52ZM99.44 109.451V101.911H91.9V94.3712H114.52V101.911H106.98V109.451H99.44ZM103.21 90.6012V75.5212H110.75V83.0612H118.29V90.6012H103.21ZM85.3025 82.1187V76.4637H90.9575V82.1187H85.3025ZM85.3025 127.359V121.704H90.9575V127.359H85.3025ZM130.542 82.1187V76.4637H136.197V82.1187H130.542Z" fill="url(#paint0_linear_421_847)"/>
<g filter="url(#filter2_i_421_847)">
<path d="M73.9764 50.2066C73.6479 49.7936 73.2393 49.5723 72.7506 49.5429C72.2619 49.5135 71.734 49.6831 71.1668 50.0517C70.7814 50.3021 70.4913 50.5683 70.2965 50.8502C70.0994 51.1285 69.9911 51.4085 69.9718 51.6904C69.9561 51.9698 70.0259 52.23 70.1813 52.4707C70.3036 52.6761 70.4584 52.824 70.6459 52.9145C70.837 53.0027 71.0496 53.0483 71.2839 53.0514C71.5158 53.0509 71.765 53.021 72.0313 52.9619C72.2953 52.8991 72.5667 52.8159 72.8457 52.7123L74.0046 52.301C74.5625 52.0939 75.1039 51.9492 75.6289 51.867C76.1539 51.7847 76.6514 51.7799 77.1214 51.8525C77.5915 51.9251 78.0249 52.0887 78.4216 52.3436C78.822 52.596 79.1748 52.9546 79.4798 53.4192C79.9189 54.1073 80.1283 54.8153 80.1078 55.5432C80.0887 56.2651 79.8449 56.9749 79.3767 57.6727C78.9098 58.3645 78.2218 59.0057 77.3128 59.5964C76.4111 60.1823 75.5362 60.5541 74.6882 60.7115C73.8438 60.8667 73.0589 60.7941 72.3335 60.4939C71.6094 60.1877 70.9781 59.6374 70.4395 58.843L72.7247 57.3581C72.9927 57.7173 73.3025 57.9613 73.654 58.0902C74.0069 58.213 74.3845 58.2344 74.7869 58.1541C75.1906 58.0678 75.596 57.8924 76.0033 57.6278C76.4032 57.3679 76.7128 57.0839 76.9319 56.7758C77.1547 56.4653 77.2808 56.1529 77.3102 55.8387C77.3396 55.5245 77.2672 55.2323 77.0929 54.9624C76.9304 54.7107 76.7193 54.5475 76.4596 54.4729C76.2034 54.396 75.8947 54.3895 75.5334 54.4533C75.1757 54.5149 74.7615 54.6288 74.2906 54.7949L72.8766 55.2787C71.7865 55.6609 70.811 55.7847 69.95 55.6503C69.0891 55.5158 68.3931 55.0334 67.8622 54.2029C67.4205 53.5268 67.2179 52.817 67.2541 52.0737C67.294 51.328 67.5421 50.605 67.9984 49.9046C68.4546 49.2042 69.09 48.5894 69.9044 48.0602C70.7335 47.5215 71.5489 47.1936 72.3507 47.0765C73.1561 46.957 73.8952 47.0386 74.5679 47.3212C75.2407 47.6038 75.798 48.0754 76.2399 48.7359L73.9764 50.2066Z" fill="#BFBFBF"/>
<path d="M88.7523 53.7938C87.7983 54.1628 86.9 54.2774 86.057 54.1376C85.2165 53.9922 84.4729 53.6277 83.8262 53.044C83.1834 52.4588 82.6806 51.6937 82.3175 50.7488C81.9498 49.7918 81.8112 48.8812 81.9016 48.0171C81.9947 47.1473 82.3047 46.3776 82.832 45.7079C83.3578 45.0341 84.0915 44.5151 85.0333 44.1508C85.8458 43.8366 86.6141 43.7095 87.3382 43.7695C88.0623 43.8294 88.705 44.0583 89.2664 44.4561C89.8277 44.8538 90.2654 45.4065 90.579 46.1143L88.1417 47.057C87.8938 46.6172 87.5678 46.3124 87.1636 46.1427C86.762 45.9673 86.3247 45.9711 85.8517 46.154C85.4516 46.3087 85.1441 46.5534 84.9291 46.8881C84.7165 47.2172 84.6069 47.6206 84.6001 48.0983C84.5933 48.5761 84.7029 49.109 84.9288 49.697C85.1579 50.2931 85.4335 50.7688 85.7557 51.1239C86.0819 51.4776 86.4366 51.706 86.8199 51.8093C87.2032 51.9126 87.5948 51.8869 87.995 51.7321C88.2901 51.618 88.5314 51.4548 88.7191 51.2425C88.9109 51.0286 89.0391 50.7763 89.1039 50.4858C89.1712 50.1896 89.166 49.8678 89.0882 49.5206L91.5256 48.5779C91.7594 49.3073 91.8069 50.0109 91.6681 50.6888C91.5318 51.361 91.2189 51.9665 90.7295 52.5051C90.24 53.0438 89.581 53.4733 88.7523 53.7938Z" fill="#BFBFBF"/>
<path d="M98.625 50.9181C97.9984 51.0319 97.4203 51.0243 96.8908 50.8952C96.3604 50.7619 95.9135 50.5052 95.5499 50.1251C95.1899 49.74 94.9512 49.2224 94.8339 48.5723C94.7351 48.0249 94.7523 47.5469 94.8855 47.1385C95.0187 46.73 95.2375 46.3811 95.5419 46.0918C95.8463 45.8023 96.2076 45.56 96.6258 45.3648C97.0483 45.1688 97.4982 45.0032 97.9757 44.8679C98.536 44.7042 98.9864 44.565 99.3267 44.4502C99.6662 44.3311 99.9051 44.2038 100.044 44.0682C100.182 43.9326 100.232 43.7601 100.195 43.5505L100.188 43.512C100.114 43.1057 99.9297 42.8146 99.6337 42.6387C99.3421 42.462 98.964 42.4158 98.4994 42.5002C98.0092 42.5893 97.6388 42.7692 97.3883 43.0399C97.1371 43.3064 96.9938 43.6107 96.9587 43.9528L94.4024 44.2051C94.4222 43.5831 94.5803 43.02 94.8767 42.5156C95.1723 42.007 95.5952 41.5812 96.1453 41.2384C96.6988 40.8905 97.3678 40.6453 98.1522 40.5028C98.6977 40.4037 99.2315 40.373 99.7534 40.4107C100.28 40.4477 100.761 40.5656 101.197 40.7646C101.638 40.9628 102.01 41.2531 102.312 41.6354C102.614 42.0135 102.817 42.4955 102.923 43.0814L104.122 49.7274L101.539 50.1966L101.293 48.8303L101.216 48.8442C101.114 49.1808 100.952 49.4907 100.73 49.7739C100.507 50.0528 100.222 50.2922 99.8755 50.4922C99.5278 50.6878 99.111 50.8298 98.625 50.9181ZM99.0648 48.8904C99.4655 48.8176 99.805 48.6742 100.083 48.4602C100.361 48.242 100.562 47.9801 100.688 47.6746C100.813 47.3692 100.845 47.0433 100.782 46.6969L100.593 45.6511C100.518 45.7222 100.41 45.7949 100.27 45.869C100.132 45.9381 99.9755 46.0086 99.7992 46.0804C99.6221 46.1479 99.4445 46.2132 99.2666 46.2764C99.088 46.3354 98.926 46.3892 98.7807 46.4376C98.4694 46.5427 98.2037 46.6682 97.9836 46.8143C97.7633 46.9603 97.603 47.1329 97.5025 47.3323C97.4012 47.5274 97.3738 47.7532 97.4201 48.0098C97.4872 48.3818 97.6728 48.6419 97.9768 48.7899C98.2843 48.9328 98.647 48.9663 99.0648 48.8904Z" fill="#BFBFBF"/>
<path d="M110.526 43.7148L110.394 49.5025L107.626 49.439L107.855 39.4279L110.492 39.4884L110.452 41.2547L110.569 41.2574C110.803 40.6802 111.184 40.2281 111.711 39.9011C112.239 39.5698 112.873 39.4126 113.613 39.4296C114.306 39.4455 114.907 39.6114 115.415 39.9274C115.924 40.2434 116.314 40.6871 116.587 41.2585C116.86 41.8256 116.988 42.4981 116.97 43.2758L116.825 49.6501L114.058 49.5866L114.192 43.7077C114.21 43.0951 114.065 42.6136 113.757 42.263C113.448 41.9082 113.017 41.7244 112.463 41.7117C112.09 41.7031 111.759 41.7759 111.47 41.9301C111.185 42.0845 110.958 42.314 110.791 42.6188C110.628 42.9194 110.54 43.2847 110.526 43.7148Z" fill="#BFBFBF"/>
<path d="M131.541 48.1908L133.802 48.9694L134.437 50.8285L135.109 52.5209L136.31 55.8982L133.827 55.0434L132.988 52.7558L132.607 51.4392L131.541 48.1908ZM139.015 48.6134C138.544 49.9905 137.883 51.0726 137.032 51.8596C136.185 52.6479 135.228 53.1432 134.161 53.3455C133.099 53.545 132.012 53.4537 130.902 53.0714C129.783 52.6863 128.867 52.0859 128.152 51.27C127.437 50.4542 126.987 49.4744 126.801 48.3305C126.615 47.1867 126.757 45.9283 127.226 44.5552C127.697 43.178 128.356 42.0953 129.203 41.3069C130.049 40.5186 131.004 40.0246 132.066 39.8251C133.129 39.6214 134.22 39.7121 135.339 40.0972C136.449 40.4794 137.362 41.0785 138.077 41.8943C138.797 42.7075 139.25 43.6859 139.436 44.8298C139.626 45.975 139.486 47.2362 139.015 48.6134ZM136.316 47.6845C136.622 46.7924 136.746 45.9943 136.689 45.29C136.636 44.5873 136.424 43.9951 136.053 43.5135C135.682 43.0319 135.175 42.6804 134.531 42.4589C133.888 42.2374 133.273 42.2025 132.685 42.354C132.097 42.5055 131.565 42.8417 131.09 43.3626C130.618 43.8848 130.229 44.592 129.924 45.4841C129.619 46.3761 129.493 47.1736 129.546 47.8764C129.603 48.5806 129.817 49.1736 130.188 49.6551C130.559 50.1367 131.066 50.4882 131.71 50.7097C132.353 50.9311 132.968 50.9661 133.556 50.8146C134.144 50.6631 134.673 50.3262 135.145 49.8039C135.621 49.2831 136.011 48.5766 136.316 47.6845Z" fill="#BFBFBF"/>
<path d="M140.181 56.6868L147.438 45.4946L151.839 48.3669C152.681 48.9168 153.302 49.5372 153.702 50.2282C154.107 50.918 154.288 51.6398 154.243 52.3938C154.205 53.1465 153.946 53.8926 153.467 54.6322C152.985 55.3754 152.41 55.9105 151.744 56.2375C151.079 56.5609 150.352 56.6668 149.561 56.5552C148.774 56.446 147.952 56.1117 147.095 55.5524L144.148 53.6293L145.381 51.7275L147.947 53.4018C148.397 53.6957 148.811 53.8778 149.189 53.9483C149.567 54.0188 149.909 53.9775 150.215 53.8246C150.525 53.674 150.799 53.4147 151.037 53.0468C151.278 52.6752 151.407 52.3132 151.423 51.9611C151.443 51.6112 151.345 51.2724 151.129 50.9445C150.919 50.6154 150.586 50.3027 150.132 50.0064L148.542 48.9685L142.54 58.2261L140.181 56.6868ZM149.508 55.5251L148.978 62.4279L146.375 60.7286L146.964 53.865L149.508 55.5251Z" fill="#BFBFBF"/>
</g>
<defs>
<filter id="filter0_d_421_847" x="21.0548" y="11.8876" width="179.391" height="179.391" filterUnits="userSpaceOnUse" color-interpolation-filters="sRGB">
<feFlood flood-opacity="0" result="BackgroundImageFix"/>
<feColorMatrix in="SourceAlpha" type="matrix" values="0 0 0 0 0 0 0 0 0 0 0 0 0 0 0 0 0 0 127 0" result="hardAlpha"/>
<feMorphology radius="5" operator="dilate" in="SourceAlpha" result="effect1_dropShadow_421_847"/>
<feOffset/>
<feGaussianBlur stdDeviation="2"/>
<feComposite in2="hardAlpha" operator="out"/>
<feColorMatrix type="matrix" values="0 0 0 0 0.721141 0 0 0 0 0.721141 0 0 0 0 0.721141 0 0 0 1 0"/>
<feBlend mode="normal" in2="BackgroundImageFix" result="effect1_dropShadow_421_847"/>
<feBlend mode="normal" in="SourceGraphic" in2="effect1_dropShadow_421_847" result="shape"/>
</filter>
<filter id="filter1_f_421_847" x="23.0368" y="12.531" width="176.277" height="105.152" filterUnits="userSpaceOnUse" color-interpolation-filters="sRGB">
<feFlood flood-opacity="0" result="BackgroundImageFix"/>
<feBlend mode="normal" in="SourceGraphic" in2="BackgroundImageFix" result="shape"/>
<feGaussianBlur stdDeviation="8.85" result="effect1_foregroundBlur_421_847"/>
</filter>
<filter id="filter2_i_421_847" x="67.25" y="39.4279" width="88" height="24" filterUnits="userSpaceOnUse" color-interpolation-filters="sRGB">
<feFlood flood-opacity="0" result="BackgroundImageFix"/>
<feBlend mode="normal" in="SourceGraphic" in2="BackgroundImageFix" result="shape"/>
<feColorMatrix in="SourceAlpha" type="matrix" values="0 0 0 0 0 0 0 0 0 0 0 0 0 0 0 0 0 0 127 0" result="hardAlpha"/>
<feOffset dx="1" dy="1"/>
<feGaussianBlur stdDeviation="1.5"/>
<feComposite in2="hardAlpha" operator="arithmetic" k2="-1" k3="1"/>
<feColorMatrix type="matrix" values="0 0 0 0 0 0 0 0 0 0 0 0 0 0 0 0 0 0 0.33 0"/>
<feBlend mode="normal" in2="shape" result="effect1_innerShadow_421_847"/>
</filter>
<linearGradient id="paint0_linear_421_847" x1="110.75" y1="67.9812" x2="110.75" y2="135.841" gradientUnits="userSpaceOnUse">
<stop stop-color="#409576"/>
<stop offset="1" stop-color="#3B7C76"/>
</linearGradient>
</defs>
</svg>
