<svg width="87" height="106" viewBox="0 0 87 106" fill="none" xmlns="http://www.w3.org/2000/svg">
<mask id="mask0_722_938" style="mask-type:alpha" maskUnits="userSpaceOnUse" x="0" y="0" width="87" height="87">
<rect x="0.0727539" y="0.072052" width="86.771" height="86.771" fill="#D9D9D9"/>
</mask>
<g mask="url(#mask0_722_938)">
<path d="M72.382 74.5253H14.5346C12.5461 74.5253 10.8438 73.8173 9.42779 72.4012C8.01174 70.9852 7.30371 69.2829 7.30371 67.2944V52.8325C9.29221 52.8325 10.9945 52.1245 12.4105 50.7084C13.8266 49.2924 14.5346 47.5901 14.5346 45.6016C14.5346 43.6131 13.8266 41.9108 12.4105 40.4948C10.9945 39.0787 9.29221 38.3707 7.30371 38.3707V23.9088C7.30371 21.9203 8.01174 20.2181 9.42779 18.802C10.8438 17.3859 12.5461 16.6779 14.5346 16.6779H72.382C74.3705 16.6779 76.0728 17.3859 77.4888 18.802C78.9049 20.2181 79.6129 21.9203 79.6129 23.9088V67.2944C79.6129 69.2829 78.9049 70.9852 77.4888 72.4012C76.0728 73.8173 74.3705 74.5253 72.382 74.5253ZM72.382 67.2944V23.9088H14.5346V33.1283C16.7642 34.4539 18.5267 36.2165 19.8222 38.4159C21.1178 40.6153 21.7656 43.0105 21.7656 45.6016C21.7656 48.1927 21.1178 50.5879 19.8222 52.7873C18.5267 54.9867 16.7642 56.7493 14.5346 58.0749V67.2944H72.382Z" fill="#1F9900"/>
</g>
<path d="M15.949 82.361V81.2566H21.7515V82.361H19.5037V88.5293H18.1968V82.361H15.949ZM23.9701 88.5293V81.2566H28.7003V82.361H25.2876V84.3354H28.4552V85.4398H25.2876V87.4249H28.7287V88.5293H23.9701ZM31.1444 88.5293V81.2566H33.8716C34.4303 81.2566 34.8991 81.3536 35.2779 81.5478C35.659 81.7419 35.9467 82.0141 36.1408 82.3645C36.3373 82.7125 36.4355 83.1185 36.4355 83.5826C36.4355 84.0489 36.3361 84.4538 36.1373 84.7971C35.9408 85.138 35.6507 85.4019 35.2672 85.589C34.8837 85.7736 34.4126 85.8659 33.8539 85.8659H31.9114V84.7722H33.6763C34.003 84.7722 34.2705 84.7272 34.4789 84.6373C34.6872 84.5449 34.8411 84.4112 34.9405 84.236C35.0423 84.0584 35.0932 83.8406 35.0932 83.5826C35.0932 83.3245 35.0423 83.1043 34.9405 82.9221C34.8387 82.7374 34.6837 82.5977 34.4753 82.503C34.267 82.406 33.9983 82.3574 33.6692 82.3574H32.4618V88.5293H31.1444ZM34.9015 85.2338L36.7019 88.5293H35.2317L33.4632 85.2338H34.9015ZM38.7483 81.2566H40.3605L42.5196 86.5265H42.6048L44.7639 81.2566H46.3761V88.5293H45.1119V83.5328H45.0444L43.0345 88.508H42.0899L40.0799 83.5222H40.0125V88.5293H38.7483V81.2566ZM50.2282 81.2566V88.5293H48.9108V81.2566H50.2282ZM58.7315 81.2566V88.5293H57.5596L54.1327 83.5755H54.0724V88.5293H52.7549V81.2566H53.9339L57.3572 86.214H57.4211V81.2566H58.7315ZM62.201 88.5293H60.7947L63.3551 81.2566H64.9815L67.5454 88.5293H66.1392L64.1967 82.748H64.1399L62.201 88.5293ZM62.2471 85.6777H66.0824V86.736H62.2471V85.6777ZM20.6187 93.2566L22.5115 98.981H22.5861L24.4753 93.2566H25.9241L23.3602 100.529H21.7338L19.1734 93.2566H20.6187ZM29.2995 93.2566V100.529H27.9821V93.2566H29.2995ZM32.7601 100.529H31.3539L33.9143 93.2566H35.5407L38.1046 100.529H36.6984L34.7559 94.748H34.6991L32.7601 100.529ZM32.8063 97.6777H36.6415V98.736H32.8063V97.6777ZM44.6929 95.579C44.6337 95.3873 44.552 95.2156 44.4479 95.0641C44.3461 94.9102 44.2229 94.7788 44.0785 94.6699C43.9365 94.561 43.7731 94.4793 43.5885 94.4249C43.4038 94.3681 43.2026 94.3397 42.9848 94.3397C42.5942 94.3397 42.2461 94.4379 41.9408 94.6344C41.6354 94.8309 41.3951 95.1197 41.2199 95.5009C41.047 95.8797 40.9606 96.3413 40.9606 96.8858C40.9606 97.4351 41.047 97.9003 41.2199 98.2814C41.3927 98.6626 41.633 98.9526 41.9408 99.1515C42.2485 99.348 42.606 99.4462 43.0132 99.4462C43.3825 99.4462 43.7021 99.3752 43.972 99.2331C44.2443 99.0911 44.4538 98.8899 44.6006 98.6294C44.7473 98.3667 44.8207 98.0589 44.8207 97.7061L45.119 97.7523H43.1446V96.7225H46.0956V97.5961C46.0956 98.2187 45.963 98.7573 45.6979 99.2118C45.4327 99.6664 45.0681 100.017 44.6041 100.263C44.1401 100.507 43.6074 100.629 43.0061 100.629C42.3361 100.629 41.7478 100.478 41.2412 100.178C40.7369 99.8747 40.3427 99.445 40.0586 98.8887C39.7769 98.33 39.6361 97.6671 39.6361 96.9C39.6361 96.3129 39.7189 95.7885 39.8846 95.3269C40.0527 94.8652 40.2871 94.4734 40.5878 94.1515C40.8884 93.8271 41.2412 93.5809 41.646 93.4128C42.0508 93.2424 42.4912 93.1571 42.967 93.1571C43.3695 93.1571 43.7447 93.2163 44.0927 93.3347C44.4408 93.4507 44.7497 93.6164 45.0196 93.8319C45.2918 94.0473 45.5156 94.303 45.6908 94.5989C45.8659 94.8948 45.9808 95.2215 46.0352 95.579H44.6929ZM53.3417 95.579C53.2825 95.3873 53.2008 95.2156 53.0967 95.0641C52.9949 94.9102 52.8718 94.7788 52.7274 94.6699C52.5853 94.561 52.422 94.4793 52.2373 94.4249C52.0526 94.3681 51.8514 94.3397 51.6336 94.3397C51.243 94.3397 50.895 94.4379 50.5896 94.6344C50.2842 94.8309 50.0439 95.1197 49.8687 95.5009C49.6959 95.8797 49.6095 96.3413 49.6095 96.8858C49.6095 97.4351 49.6959 97.9003 49.8687 98.2814C50.0415 98.6626 50.2818 98.9526 50.5896 99.1515C50.8973 99.348 51.2548 99.4462 51.662 99.4462C52.0313 99.4462 52.3509 99.3752 52.6208 99.2331C52.8931 99.0911 53.1026 98.8899 53.2494 98.6294C53.3962 98.3667 53.4696 98.0589 53.4696 97.7061L53.7678 97.7523H51.7934V96.7225H54.7444V97.5961C54.7444 98.2187 54.6118 98.7573 54.3467 99.2118C54.0815 99.6664 53.7169 100.017 53.2529 100.263C52.7889 100.507 52.2562 100.629 51.6549 100.629C50.9849 100.629 50.3966 100.478 49.89 100.178C49.3857 99.8747 48.9916 99.445 48.7075 98.8887C48.4258 98.33 48.2849 97.6671 48.2849 96.9C48.2849 96.3129 48.3678 95.7885 48.5335 95.3269C48.7016 94.8652 48.9359 94.4734 49.2366 94.1515C49.5373 93.8271 49.89 93.5809 50.2948 93.4128C50.6997 93.2424 51.14 93.1571 51.6159 93.1571C52.0183 93.1571 52.3936 93.2163 52.7416 93.3347C53.0896 93.4507 53.3985 93.6164 53.6684 93.8319C53.9407 94.0473 54.1644 94.303 54.3396 94.5989C54.5148 94.8948 54.6296 95.2215 54.684 95.579H53.3417ZM58.4359 93.2566V100.529H57.1184V93.2566H58.4359ZM67.4611 96.8929C67.4611 97.6766 67.3143 98.3477 67.0208 98.9064C66.7296 99.4628 66.3318 99.8889 65.8276 100.185C65.3257 100.481 64.7563 100.629 64.1195 100.629C63.4826 100.629 62.9121 100.481 62.4078 100.185C61.9059 99.8865 61.5082 99.4592 61.2146 98.9029C60.9235 98.3442 60.7779 97.6742 60.7779 96.8929C60.7779 96.1093 60.9235 95.4393 61.2146 94.883C61.5082 94.3243 61.9059 93.897 62.4078 93.601C62.9121 93.3051 63.4826 93.1571 64.1195 93.1571C64.7563 93.1571 65.3257 93.3051 65.8276 93.601C66.3318 93.897 66.7296 94.3243 67.0208 94.883C67.3143 95.4393 67.4611 96.1093 67.4611 96.8929ZM66.1365 96.8929C66.1365 96.3413 66.0501 95.8761 65.8773 95.4973C65.7068 95.1162 65.4701 94.8285 65.1671 94.6344C64.864 94.4379 64.5148 94.3397 64.1195 94.3397C63.7241 94.3397 63.3749 94.4379 63.0719 94.6344C62.7689 94.8285 62.5309 95.1162 62.3581 95.4973C62.1877 95.8761 62.1024 96.3413 62.1024 96.8929C62.1024 97.4445 62.1877 97.9109 62.3581 98.2921C62.5309 98.6709 62.7689 98.9585 63.0719 99.155C63.3749 99.3491 63.7241 99.4462 64.1195 99.4462C64.5148 99.4462 64.864 99.3491 65.1671 99.155C65.4701 98.9585 65.7068 98.6709 65.8773 98.2921C66.0501 97.9109 66.1365 97.4445 66.1365 96.8929Z" fill="#1F9900"/>
<mask id="mask1_722_938" style="mask-type:alpha" maskUnits="userSpaceOnUse" x="26" y="23" width="42" height="41">
<rect x="26.811" y="23.1609" width="40.2881" height="40.2881" fill="#D9D9D9"/>
</mask>
<g mask="url(#mask1_722_938)">
<path d="M33.5258 60.0917C33.0502 60.0917 32.6515 59.9308 32.3297 59.6091C32.008 59.2873 31.8471 58.8886 31.8471 58.413V54.9717C31.2876 54.3842 30.8679 53.7337 30.5881 53.0203C30.3083 52.3069 30.1685 51.5864 30.1685 50.859V34.9116C30.1685 32.4216 31.3225 30.68 33.6307 29.6868C35.9389 28.6935 39.9747 28.1969 45.7381 28.1969C45.3744 28.7005 45.0597 29.2321 44.7939 29.7917C44.5281 30.3512 44.2973 30.9248 44.1014 31.5123C41.2477 31.5683 39.0444 31.7361 37.4917 32.0159C35.9389 32.2957 34.8687 32.7014 34.2812 33.2329H43.7237C43.6398 33.7925 43.5978 34.3521 43.5978 34.9116C43.5978 35.4712 43.6398 36.0307 43.7237 36.5903H33.5258V41.6263H45.7381C46.2138 42.2978 46.7453 42.9203 47.3329 43.4938C47.9204 44.0674 48.5779 44.564 49.3053 44.9836H33.5258V50.0197C33.5258 50.9429 33.8545 51.7333 34.512 52.3908C35.1695 53.0483 35.9599 53.377 36.8831 53.377H50.3125C51.2358 53.377 52.0262 53.0483 52.6836 52.3908C53.3411 51.7333 53.6699 50.9429 53.6699 50.0197V46.5364C54.2294 46.6204 54.789 46.6623 55.3485 46.6623C55.9081 46.6623 56.4676 46.6204 57.0272 46.5364V50.859C57.0272 51.5864 56.8873 52.3069 56.6075 53.0203C56.3277 53.7337 55.9081 54.3842 55.3485 54.9717V58.413C55.3485 58.8886 55.1877 59.2873 54.8659 59.6091C54.5442 59.9308 54.1455 60.0917 53.6699 60.0917H51.9912C51.5156 60.0917 51.1169 59.9308 50.7951 59.6091C50.4734 59.2873 50.3125 58.8886 50.3125 58.413V56.7343H36.8831V58.413C36.8831 58.8886 36.7223 59.2873 36.4005 59.6091C36.0788 59.9308 35.6801 60.0917 35.2045 60.0917H33.5258ZM55.3485 43.305C53.0264 43.305 51.0469 42.4866 49.4102 40.8499C47.7735 39.2132 46.9552 37.2338 46.9552 34.9116C46.9552 32.6174 47.7665 30.645 49.3892 28.9943C51.012 27.3436 52.9984 26.5183 55.3485 26.5183C57.6707 26.5183 59.6501 27.3366 61.2868 28.9733C62.9235 30.61 63.7419 32.5895 63.7419 34.9116C63.7419 37.2338 62.9235 39.2132 61.2868 40.8499C59.6501 42.4866 57.6707 43.305 55.3485 43.305ZM54.5092 36.5903H56.1879V29.8756H54.5092V36.5903ZM55.3485 39.9476C55.5723 39.9476 55.7682 39.8637 55.9361 39.6958C56.1039 39.528 56.1879 39.3321 56.1879 39.1083C56.1879 38.8845 56.1039 38.6886 55.9361 38.5208C55.7682 38.3529 55.5723 38.269 55.3485 38.269C55.1247 38.269 54.9289 38.3529 54.761 38.5208C54.5931 38.6886 54.5092 38.8845 54.5092 39.1083C54.5092 39.3321 54.5931 39.528 54.761 39.6958C54.9289 39.8637 55.1247 39.9476 55.3485 39.9476ZM37.7225 51.6983C38.4219 51.6983 39.0165 51.4535 39.5061 50.9639C39.9957 50.4743 40.2405 49.8798 40.2405 49.1803C40.2405 48.4809 39.9957 47.8863 39.5061 47.3967C39.0165 46.9071 38.4219 46.6623 37.7225 46.6623C37.023 46.6623 36.4285 46.9071 35.9389 47.3967C35.4493 47.8863 35.2045 48.4809 35.2045 49.1803C35.2045 49.8798 35.4493 50.4743 35.9389 50.9639C36.4285 51.4535 37.023 51.6983 37.7225 51.6983ZM49.4732 51.6983C50.1726 51.6983 50.7672 51.4535 51.2568 50.9639C51.7464 50.4743 51.9912 49.8798 51.9912 49.1803C51.9912 48.4809 51.7464 47.8863 51.2568 47.3967C50.7672 46.9071 50.1726 46.6623 49.4732 46.6623C48.7737 46.6623 48.1792 46.9071 47.6896 47.3967C47.2 47.8863 46.9552 48.4809 46.9552 49.1803C46.9552 49.8798 47.2 50.4743 47.6896 50.9639C48.1792 51.4535 48.7737 51.6983 49.4732 51.6983Z" fill="#1F9900"/>
</g>
</svg>
