<svg width="137" height="137" viewBox="0 0 137 137" fill="none" xmlns="http://www.w3.org/2000/svg">
<g filter="url(#filter0_d_643_938)">
<circle cx="68.4585" cy="68.8721" r="59.085" fill="white"/>
</g>
<mask id="mask0_643_938" style="mask-type:alpha" maskUnits="userSpaceOnUse" x="25" y="14" width="87" height="87">
<rect x="25.0728" y="14.0721" width="86.771" height="86.771" fill="#D9D9D9"/>
</mask>
<g mask="url(#mask0_643_938)">
<path d="M97.382 88.5253H39.5346C37.5461 88.5253 35.8438 87.8173 34.4278 86.4012C33.0117 84.9852 32.3037 83.2829 32.3037 81.2944V66.8325C34.2922 66.8325 35.9945 66.1245 37.4105 64.7084C38.8266 63.2924 39.5346 61.5901 39.5346 59.6016C39.5346 57.6131 38.8266 55.9108 37.4105 54.4948C35.9945 53.0787 34.2922 52.3707 32.3037 52.3707V37.9088C32.3037 35.9203 33.0117 34.2181 34.4278 32.802C35.8438 31.3859 37.5461 30.6779 39.5346 30.6779H97.382C99.3705 30.6779 101.073 31.3859 102.489 32.802C103.905 34.2181 104.613 35.9203 104.613 37.9088V81.2944C104.613 83.2829 103.905 84.9852 102.489 86.4012C101.073 87.8173 99.3705 88.5253 97.382 88.5253ZM97.382 81.2944V37.9088H39.5346V47.1283C41.7642 48.4539 43.5267 50.2165 44.8222 52.4159C46.1178 54.6153 46.7656 57.0105 46.7656 59.6016C46.7656 62.1927 46.1178 64.5879 44.8222 66.7873C43.5267 68.9867 41.7642 70.7493 39.5346 72.0749V81.2944H97.382Z" fill="#1F9900"/>
</g>
<path d="M40.949 96.361V95.2566H46.7515V96.361H44.5037V102.529H43.1968V96.361H40.949ZM48.9701 102.529V95.2566H53.7003V96.361H50.2876V98.3354H53.4552V99.4398H50.2876V101.425H53.7287V102.529H48.9701ZM56.1444 102.529V95.2566H58.8716C59.4303 95.2566 59.8991 95.3536 60.2779 95.5478C60.659 95.7419 60.9467 96.0141 61.1408 96.3645C61.3373 96.7125 61.4355 97.1185 61.4355 97.5826C61.4355 98.0489 61.3361 98.4538 61.1373 98.7971C60.9408 99.138 60.6507 99.4019 60.2672 99.589C59.8837 99.7736 59.4126 99.8659 58.8539 99.8659H56.9114V98.7722H58.6763C59.003 98.7722 59.2705 98.7272 59.4789 98.6373C59.6872 98.5449 59.8411 98.4112 59.9405 98.236C60.0423 98.0584 60.0932 97.8406 60.0932 97.5826C60.0932 97.3245 60.0423 97.1043 59.9405 96.9221C59.8387 96.7374 59.6837 96.5977 59.4753 96.503C59.267 96.406 58.9983 96.3574 58.6692 96.3574H57.4618V102.529H56.1444ZM59.9015 99.2338L61.7019 102.529H60.2317L58.4632 99.2338H59.9015ZM63.7483 95.2566H65.3605L67.5196 100.526H67.6048L69.7639 95.2566H71.3761V102.529H70.1119V97.5328H70.0444L68.0345 102.508H67.0899L65.0799 97.5222H65.0125V102.529H63.7483V95.2566ZM75.2282 95.2566V102.529H73.9108V95.2566H75.2282ZM83.7315 95.2566V102.529H82.5596L79.1327 97.5755H79.0724V102.529H77.7549V95.2566H78.9339L82.3572 100.214H82.4211V95.2566H83.7315ZM87.201 102.529H85.7947L88.3551 95.2566H89.9815L92.5454 102.529H91.1392L89.1967 96.748H89.1399L87.201 102.529ZM87.2471 99.6777H91.0824V100.736H87.2471V99.6777ZM45.6187 107.257L47.5115 112.981H47.5861L49.4753 107.257H50.9241L48.3602 114.529H46.7338L44.1734 107.257H45.6187ZM54.2995 107.257V114.529H52.9821V107.257H54.2995ZM57.7601 114.529H56.3539L58.9143 107.257H60.5407L63.1046 114.529H61.6984L59.7559 108.748H59.6991L57.7601 114.529ZM57.8063 111.678H61.6415V112.736H57.8063V111.678ZM69.6929 109.579C69.6337 109.387 69.552 109.216 69.4479 109.064C69.3461 108.91 69.2229 108.779 69.0785 108.67C68.9365 108.561 68.7731 108.479 68.5885 108.425C68.4038 108.368 68.2026 108.34 67.9848 108.34C67.5942 108.34 67.2461 108.438 66.9408 108.634C66.6354 108.831 66.3951 109.12 66.2199 109.501C66.047 109.88 65.9606 110.341 65.9606 110.886C65.9606 111.435 66.047 111.9 66.2199 112.281C66.3927 112.663 66.633 112.953 66.9408 113.151C67.2485 113.348 67.606 113.446 68.0132 113.446C68.3825 113.446 68.7021 113.375 68.972 113.233C69.2443 113.091 69.4538 112.89 69.6006 112.629C69.7473 112.367 69.8207 112.059 69.8207 111.706L70.119 111.752H68.1446V110.722H71.0956V111.596C71.0956 112.219 70.963 112.757 70.6979 113.212C70.4327 113.666 70.0681 114.017 69.6041 114.263C69.1401 114.507 68.6074 114.629 68.0061 114.629C67.3361 114.629 66.7478 114.478 66.2412 114.178C65.7369 113.875 65.3427 113.445 65.0586 112.889C64.7769 112.33 64.6361 111.667 64.6361 110.9C64.6361 110.313 64.7189 109.789 64.8846 109.327C65.0527 108.865 65.2871 108.473 65.5878 108.151C65.8884 107.827 66.2412 107.581 66.646 107.413C67.0508 107.242 67.4912 107.157 67.967 107.157C68.3695 107.157 68.7447 107.216 69.0927 107.335C69.4408 107.451 69.7497 107.616 70.0196 107.832C70.2918 108.047 70.5156 108.303 70.6908 108.599C70.8659 108.895 70.9808 109.222 71.0352 109.579H69.6929ZM78.3417 109.579C78.2825 109.387 78.2008 109.216 78.0967 109.064C77.9949 108.91 77.8718 108.779 77.7274 108.67C77.5853 108.561 77.422 108.479 77.2373 108.425C77.0526 108.368 76.8514 108.34 76.6336 108.34C76.243 108.34 75.895 108.438 75.5896 108.634C75.2842 108.831 75.0439 109.12 74.8687 109.501C74.6959 109.88 74.6095 110.341 74.6095 110.886C74.6095 111.435 74.6959 111.9 74.8687 112.281C75.0415 112.663 75.2818 112.953 75.5896 113.151C75.8973 113.348 76.2548 113.446 76.662 113.446C77.0313 113.446 77.3509 113.375 77.6208 113.233C77.8931 113.091 78.1026 112.89 78.2494 112.629C78.3962 112.367 78.4696 112.059 78.4696 111.706L78.7678 111.752H76.7934V110.722H79.7444V111.596C79.7444 112.219 79.6118 112.757 79.3467 113.212C79.0815 113.666 78.7169 114.017 78.2529 114.263C77.7889 114.507 77.2562 114.629 76.6549 114.629C75.9849 114.629 75.3966 114.478 74.89 114.178C74.3857 113.875 73.9916 113.445 73.7075 112.889C73.4258 112.33 73.2849 111.667 73.2849 110.9C73.2849 110.313 73.3678 109.789 73.5335 109.327C73.7016 108.865 73.9359 108.473 74.2366 108.151C74.5373 107.827 74.89 107.581 75.2948 107.413C75.6997 107.242 76.14 107.157 76.6159 107.157C77.0183 107.157 77.3936 107.216 77.7416 107.335C78.0896 107.451 78.3985 107.616 78.6684 107.832C78.9407 108.047 79.1644 108.303 79.3396 108.599C79.5148 108.895 79.6296 109.222 79.684 109.579H78.3417ZM83.4359 107.257V114.529H82.1184V107.257H83.4359ZM92.4611 110.893C92.4611 111.677 92.3143 112.348 92.0208 112.906C91.7296 113.463 91.3318 113.889 90.8276 114.185C90.3257 114.481 89.7563 114.629 89.1195 114.629C88.4826 114.629 87.9121 114.481 87.4078 114.185C86.9059 113.887 86.5082 113.459 86.2146 112.903C85.9235 112.344 85.7779 111.674 85.7779 110.893C85.7779 110.109 85.9235 109.439 86.2146 108.883C86.5082 108.324 86.9059 107.897 87.4078 107.601C87.9121 107.305 88.4826 107.157 89.1195 107.157C89.7563 107.157 90.3257 107.305 90.8276 107.601C91.3318 107.897 91.7296 108.324 92.0208 108.883C92.3143 109.439 92.4611 110.109 92.4611 110.893ZM91.1365 110.893C91.1365 110.341 91.0501 109.876 90.8773 109.497C90.7068 109.116 90.4701 108.829 90.1671 108.634C89.864 108.438 89.5148 108.34 89.1195 108.34C88.7241 108.34 88.3749 108.438 88.0719 108.634C87.7689 108.829 87.5309 109.116 87.3581 109.497C87.1877 109.876 87.1024 110.341 87.1024 110.893C87.1024 111.445 87.1877 111.911 87.3581 112.292C87.5309 112.671 87.7689 112.959 88.0719 113.155C88.3749 113.349 88.7241 113.446 89.1195 113.446C89.5148 113.446 89.864 113.349 90.1671 113.155C90.4701 112.959 90.7068 112.671 90.8773 112.292C91.0501 111.911 91.1365 111.445 91.1365 110.893Z" fill="#1F9900"/>
<mask id="mask1_643_938" style="mask-type:alpha" maskUnits="userSpaceOnUse" x="51" y="37" width="42" height="41">
<rect x="51.811" y="37.1609" width="40.2881" height="40.2881" fill="#D9D9D9"/>
</mask>
<g mask="url(#mask1_643_938)">
<path d="M58.5258 74.0917C58.0502 74.0917 57.6515 73.9308 57.3297 73.6091C57.008 73.2873 56.8471 72.8886 56.8471 72.413V68.9717C56.2876 68.3842 55.8679 67.7337 55.5881 67.0203C55.3083 66.3069 55.1685 65.5864 55.1685 64.859V48.9116C55.1685 46.4216 56.3225 44.68 58.6307 43.6868C60.9389 42.6935 64.9747 42.1969 70.7381 42.1969C70.3744 42.7005 70.0597 43.2321 69.7939 43.7917C69.5281 44.3512 69.2973 44.9248 69.1014 45.5123C66.2477 45.5683 64.0444 45.7361 62.4917 46.0159C60.9389 46.2957 59.8687 46.7014 59.2812 47.2329H68.7237C68.6398 47.7925 68.5978 48.3521 68.5978 48.9116C68.5978 49.4712 68.6398 50.0307 68.7237 50.5903H58.5258V55.6263H70.7381C71.2138 56.2978 71.7453 56.9203 72.3329 57.4938C72.9204 58.0674 73.5779 58.564 74.3053 58.9836H58.5258V64.0197C58.5258 64.9429 58.8545 65.7333 59.512 66.3908C60.1695 67.0483 60.9599 67.377 61.8831 67.377H75.3125C76.2358 67.377 77.0262 67.0483 77.6836 66.3908C78.3411 65.7333 78.6699 64.9429 78.6699 64.0197V60.5364C79.2294 60.6204 79.789 60.6623 80.3485 60.6623C80.9081 60.6623 81.4676 60.6204 82.0272 60.5364V64.859C82.0272 65.5864 81.8873 66.3069 81.6075 67.0203C81.3277 67.7337 80.9081 68.3842 80.3485 68.9717V72.413C80.3485 72.8886 80.1877 73.2873 79.8659 73.6091C79.5442 73.9308 79.1455 74.0917 78.6699 74.0917H76.9912C76.5156 74.0917 76.1169 73.9308 75.7951 73.6091C75.4734 73.2873 75.3125 72.8886 75.3125 72.413V70.7343H61.8831V72.413C61.8831 72.8886 61.7223 73.2873 61.4005 73.6091C61.0788 73.9308 60.6801 74.0917 60.2045 74.0917H58.5258ZM80.3485 57.305C78.0264 57.305 76.0469 56.4866 74.4102 54.8499C72.7735 53.2132 71.9552 51.2338 71.9552 48.9116C71.9552 46.6174 72.7665 44.645 74.3892 42.9943C76.012 41.3436 77.9984 40.5183 80.3485 40.5183C82.6707 40.5183 84.6501 41.3366 86.2868 42.9733C87.9235 44.61 88.7419 46.5895 88.7419 48.9116C88.7419 51.2338 87.9235 53.2132 86.2868 54.8499C84.6501 56.4866 82.6707 57.305 80.3485 57.305ZM79.5092 50.5903H81.1879V43.8756H79.5092V50.5903ZM80.3485 53.9476C80.5723 53.9476 80.7682 53.8637 80.9361 53.6958C81.1039 53.528 81.1879 53.3321 81.1879 53.1083C81.1879 52.8845 81.1039 52.6886 80.9361 52.5208C80.7682 52.3529 80.5723 52.269 80.3485 52.269C80.1247 52.269 79.9289 52.3529 79.761 52.5208C79.5931 52.6886 79.5092 52.8845 79.5092 53.1083C79.5092 53.3321 79.5931 53.528 79.761 53.6958C79.9289 53.8637 80.1247 53.9476 80.3485 53.9476ZM62.7225 65.6983C63.4219 65.6983 64.0165 65.4535 64.5061 64.9639C64.9957 64.4743 65.2405 63.8798 65.2405 63.1803C65.2405 62.4809 64.9957 61.8863 64.5061 61.3967C64.0165 60.9071 63.4219 60.6623 62.7225 60.6623C62.023 60.6623 61.4285 60.9071 60.9389 61.3967C60.4493 61.8863 60.2045 62.4809 60.2045 63.1803C60.2045 63.8798 60.4493 64.4743 60.9389 64.9639C61.4285 65.4535 62.023 65.6983 62.7225 65.6983ZM74.4732 65.6983C75.1726 65.6983 75.7672 65.4535 76.2568 64.9639C76.7464 64.4743 76.9912 63.8798 76.9912 63.1803C76.9912 62.4809 76.7464 61.8863 76.2568 61.3967C75.7672 60.9071 75.1726 60.6623 74.4732 60.6623C73.7737 60.6623 73.1792 60.9071 72.6896 61.3967C72.2 61.8863 71.9552 62.4809 71.9552 63.1803C71.9552 63.8798 72.2 64.4743 72.6896 64.9639C73.1792 65.4535 73.7737 65.6983 74.4732 65.6983Z" fill="#1F9900"/>
</g>
<defs>
<filter id="filter0_d_643_938" x="0.373535" y="0.787109" width="136.17" height="136.17" filterUnits="userSpaceOnUse" color-interpolation-filters="sRGB">
<feFlood flood-opacity="0" result="BackgroundImageFix"/>
<feColorMatrix in="SourceAlpha" type="matrix" values="0 0 0 0 0 0 0 0 0 0 0 0 0 0 0 0 0 0 127 0" result="hardAlpha"/>
<feMorphology radius="5" operator="dilate" in="SourceAlpha" result="effect1_dropShadow_643_938"/>
<feOffset/>
<feGaussianBlur stdDeviation="2"/>
<feComposite in2="hardAlpha" operator="out"/>
<feColorMatrix type="matrix" values="0 0 0 0 0.721141 0 0 0 0 0.721141 0 0 0 0 0.721141 0 0 0 1 0"/>
<feBlend mode="normal" in2="BackgroundImageFix" result="effect1_dropShadow_643_938"/>
<feBlend mode="normal" in="SourceGraphic" in2="effect1_dropShadow_643_938" result="shape"/>
</filter>
</defs>
</svg>
