<svg width="22" height="27" viewBox="0 0 22 27" fill="none" xmlns="http://www.w3.org/2000/svg">
<path fill-rule="evenodd" clip-rule="evenodd" d="M6.5 1C6.5 0.723858 6.72386 0.5 7 0.5H19C20.3807 0.5 21.5 1.61929 21.5 3V24C21.5 25.3807 20.3807 26.5 19 26.5H7C6.72386 26.5 6.5 26.2761 6.5 26C6.5 25.7239 6.72386 25.5 7 25.5H19C19.8284 25.5 20.5 24.8284 20.5 24V3C20.5 2.17157 19.8284 1.5 19 1.5H7C6.72386 1.5 6.5 1.27614 6.5 1ZM0.5 14C0.5 13.7239 0.723858 13.5 1 13.5H11.7929L7.64645 9.35355C7.45118 9.15829 7.45118 8.84171 7.64645 8.64645C7.84171 8.45118 8.15829 8.45118 8.35355 8.64645L13 13.2929C13.3905 13.6834 13.3905 14.3166 13 14.7071L8.35355 19.3536C8.15829 19.5488 7.84171 19.5488 7.64645 19.3536C7.45118 19.1583 7.45118 18.8417 7.64645 18.6464L11.7929 14.5H1C0.723858 14.5 0.5 14.2761 0.5 14Z" fill="black"/>
</svg>
