<svg width="18" height="19" viewBox="0 0 18 19" fill="none" xmlns="http://www.w3.org/2000/svg">
<path d="M4.67763 5.91722C4.88773 3.9151 6.57582 2.3949 8.58893 2.3949V2.3949C10.602 2.3949 12.2901 3.9151 12.5002 5.91722L12.7058 7.87621C12.7936 8.71301 13.053 9.52271 13.4678 10.2547L13.8862 10.993C14.0879 11.349 14.1888 11.527 14.2216 11.6671C14.3425 12.1837 14.0388 12.7048 13.5297 12.8544C13.3917 12.8949 13.1871 12.8949 12.7779 12.8949H4.39997C3.99077 12.8949 3.78616 12.8949 3.64817 12.8544C3.13907 12.7048 2.8354 12.1837 2.95629 11.6671C2.98906 11.527 3.08993 11.349 3.29167 10.993L3.71002 10.2547C4.12483 9.52271 4.38425 8.71301 4.47206 7.87621L4.67763 5.91722Z" stroke="#33363F"/>
<path d="M5.7556 12.8949C5.7556 13.2889 5.82888 13.679 5.97127 14.0429C6.11366 14.4069 6.32236 14.7376 6.58546 15.0162C6.84856 15.2948 7.16091 15.5158 7.50466 15.6665C7.84842 15.8173 8.21685 15.8949 8.58893 15.8949C8.96101 15.8949 9.32944 15.8173 9.6732 15.6665C10.017 15.5158 10.3293 15.2948 10.5924 15.0162C10.8555 14.7376 11.0642 14.4069 11.2066 14.0429C11.349 13.679 11.4223 13.2889 11.4223 12.8949" stroke="#33363F" stroke-linecap="round"/>
</svg>
