<svg width="21" height="21" viewBox="0 0 21 21" fill="none" xmlns="http://www.w3.org/2000/svg">
<mask id="mask0_429_1536" style="mask-type:alpha" maskUnits="userSpaceOnUse" x="0" y="0" width="21" height="21">
<rect x="0.0898438" y="0.692383" width="19.9357" height="19.9357" fill="#D9D9D9"/>
</mask>
<g mask="url(#mask0_429_1536)">
<path d="M15.5816 8.50047L16.2046 7.87748L14.6263 6.34077V4.01494H13.7957V6.67303L15.5816 8.50047ZM3.41253 18.9667C3.17717 18.9667 2.97989 18.8871 2.82069 18.7279C2.66148 18.5687 2.58187 18.3714 2.58187 18.136V16.4332C2.30499 16.1425 2.09733 15.8206 1.95888 15.4676C1.82044 15.1145 1.75122 14.7581 1.75122 14.3981V6.5069C1.75122 5.27477 2.32229 4.41296 3.46444 3.9215C4.60659 3.43003 6.60362 3.18429 9.45553 3.18429C9.27555 3.43349 9.1198 3.69653 8.98828 3.97341C8.85676 4.2503 8.74255 4.5341 8.64564 4.82483C7.23353 4.85252 6.1433 4.93558 5.37494 5.07403C4.60659 5.21247 4.07705 5.41321 3.78632 5.67625H8.45874C8.41721 5.95313 8.39644 6.23002 8.39644 6.5069C8.39644 6.78379 8.41721 7.06067 8.45874 7.33755H3.41253V9.82951H9.45553C9.69088 10.1618 9.95392 10.4698 10.2446 10.7536C10.5354 11.0374 10.8607 11.2832 11.2207 11.4908H3.41253V13.9828C3.41253 14.4396 3.5752 14.8307 3.90054 15.1561C4.22587 15.4814 4.61697 15.6441 5.07383 15.6441H11.7191C12.1759 15.6441 12.567 15.4814 12.8924 15.1561C13.2177 14.8307 13.3804 14.4396 13.3804 13.9828V12.2592C13.6572 12.3007 13.9341 12.3215 14.211 12.3215C14.4879 12.3215 14.7648 12.3007 15.0417 12.2592V14.3981C15.0417 14.7581 14.9724 15.1145 14.834 15.4676C14.6956 15.8206 14.4879 16.1425 14.211 16.4332V18.136C14.211 18.3714 14.1314 18.5687 13.9722 18.7279C13.813 18.8871 13.6157 18.9667 13.3804 18.9667H12.5497C12.3144 18.9667 12.1171 18.8871 11.9579 18.7279C11.7987 18.5687 11.7191 18.3714 11.7191 18.136V17.3054H5.07383V18.136C5.07383 18.3714 4.99423 18.5687 4.83502 18.7279C4.67581 18.8871 4.47853 18.9667 4.24318 18.9667H3.41253ZM14.211 10.6602C13.0619 10.6602 12.0825 10.2552 11.2726 9.44534C10.4627 8.63545 10.0577 7.65597 10.0577 6.5069C10.0577 5.37168 10.4592 4.39566 11.2622 3.57885C12.0652 2.76204 13.0481 2.35364 14.211 2.35364C15.3601 2.35364 16.3396 2.75858 17.1494 3.56847C17.9593 4.37835 18.3643 5.35783 18.3643 6.5069C18.3643 7.65597 17.9593 8.63545 17.1494 9.44534C16.3396 10.2552 15.3601 10.6602 14.211 10.6602ZM5.48916 14.8134C5.83526 14.8134 6.12945 14.6923 6.37173 14.45C6.614 14.2077 6.73514 13.9136 6.73514 13.5675C6.73514 13.2213 6.614 12.9272 6.37173 12.6849C6.12945 12.4426 5.83526 12.3215 5.48916 12.3215C5.14305 12.3215 4.84886 12.4426 4.60659 12.6849C4.36432 12.9272 4.24318 13.2213 4.24318 13.5675C4.24318 13.9136 4.36432 14.2077 4.60659 14.45C4.84886 14.6923 5.14305 14.8134 5.48916 14.8134ZM11.3037 14.8134C11.6498 14.8134 11.944 14.6923 12.1863 14.45C12.4286 14.2077 12.5497 13.9136 12.5497 13.5675C12.5497 13.2213 12.4286 12.9272 12.1863 12.6849C11.944 12.4426 11.6498 12.3215 11.3037 12.3215C10.9576 12.3215 10.6634 12.4426 10.4212 12.6849C10.1789 12.9272 10.0577 13.2213 10.0577 13.5675C10.0577 13.9136 10.1789 14.2077 10.4212 14.45C10.6634 14.6923 10.9576 14.8134 11.3037 14.8134Z" fill="black"/>
</g>
</svg>
