<svg width="24" height="25" viewBox="0 0 24 25" fill="none" xmlns="http://www.w3.org/2000/svg">
<mask id="mask0_278_1052" style="mask-type:alpha" maskUnits="userSpaceOnUse" x="0" y="0" width="24" height="25">
<rect y="0.283447" width="24" height="24" fill="#D9D9D9"/>
</mask>
<g mask="url(#mask0_278_1052)">
<path d="M5 22.2834C4.45 22.2834 3.97917 22.0876 3.5875 21.6959C3.19583 21.3043 3 20.8334 3 20.2834V6.28345C3 5.73345 3.19583 5.26261 3.5875 4.87095C3.97917 4.47928 4.45 4.28345 5 4.28345H6V2.28345H8V4.28345H16V2.28345H18V4.28345H19C19.55 4.28345 20.0208 4.47928 20.4125 4.87095C20.8042 5.26261 21 5.73345 21 6.28345V20.2834C21 20.8334 20.8042 21.3043 20.4125 21.6959C20.0208 22.0876 19.55 22.2834 19 22.2834H5ZM5 20.2834H19V10.2834H5V20.2834ZM5 8.28345H19V6.28345H5V8.28345ZM12 14.2834C11.7167 14.2834 11.4792 14.1876 11.2875 13.9959C11.0958 13.8043 11 13.5668 11 13.2834C11 13.0001 11.0958 12.7626 11.2875 12.5709C11.4792 12.3793 11.7167 12.2834 12 12.2834C12.2833 12.2834 12.5208 12.3793 12.7125 12.5709C12.9042 12.7626 13 13.0001 13 13.2834C13 13.5668 12.9042 13.8043 12.7125 13.9959C12.5208 14.1876 12.2833 14.2834 12 14.2834ZM8 14.2834C7.71667 14.2834 7.47917 14.1876 7.2875 13.9959C7.09583 13.8043 7 13.5668 7 13.2834C7 13.0001 7.09583 12.7626 7.2875 12.5709C7.47917 12.3793 7.71667 12.2834 8 12.2834C8.28333 12.2834 8.52083 12.3793 8.7125 12.5709C8.90417 12.7626 9 13.0001 9 13.2834C9 13.5668 8.90417 13.8043 8.7125 13.9959C8.52083 14.1876 8.28333 14.2834 8 14.2834ZM16 14.2834C15.7167 14.2834 15.4792 14.1876 15.2875 13.9959C15.0958 13.8043 15 13.5668 15 13.2834C15 13.0001 15.0958 12.7626 15.2875 12.5709C15.4792 12.3793 15.7167 12.2834 16 12.2834C16.2833 12.2834 16.5208 12.3793 16.7125 12.5709C16.9042 12.7626 17 13.0001 17 13.2834C17 13.5668 16.9042 13.8043 16.7125 13.9959C16.5208 14.1876 16.2833 14.2834 16 14.2834ZM12 18.2834C11.7167 18.2834 11.4792 18.1876 11.2875 17.9959C11.0958 17.8043 11 17.5668 11 17.2834C11 17.0001 11.0958 16.7626 11.2875 16.5709C11.4792 16.3793 11.7167 16.2834 12 16.2834C12.2833 16.2834 12.5208 16.3793 12.7125 16.5709C12.9042 16.7626 13 17.0001 13 17.2834C13 17.5668 12.9042 17.8043 12.7125 17.9959C12.5208 18.1876 12.2833 18.2834 12 18.2834ZM8 18.2834C7.71667 18.2834 7.47917 18.1876 7.2875 17.9959C7.09583 17.8043 7 17.5668 7 17.2834C7 17.0001 7.09583 16.7626 7.2875 16.5709C7.47917 16.3793 7.71667 16.2834 8 16.2834C8.28333 16.2834 8.52083 16.3793 8.7125 16.5709C8.90417 16.7626 9 17.0001 9 17.2834C9 17.5668 8.90417 17.8043 8.7125 17.9959C8.52083 18.1876 8.28333 18.2834 8 18.2834ZM16 18.2834C15.7167 18.2834 15.4792 18.1876 15.2875 17.9959C15.0958 17.8043 15 17.5668 15 17.2834C15 17.0001 15.0958 16.7626 15.2875 16.5709C15.4792 16.3793 15.7167 16.2834 16 16.2834C16.2833 16.2834 16.5208 16.3793 16.7125 16.5709C16.9042 16.7626 17 17.0001 17 17.2834C17 17.5668 16.9042 17.8043 16.7125 17.9959C16.5208 18.1876 16.2833 18.2834 16 18.2834Z" fill="#4AA18B"/>
</g>
</svg>
