<svg width="136" height="44" viewBox="0 0 136 44" fill="none" xmlns="http://www.w3.org/2000/svg">
<path d="M91.0301 25.0864H93.8751C93.6738 28.7161 92.9686 32.1426 88.3485 37.7143C84.4844 41.61 79.8193 43.5579 74.3531 43.5579C68.8868 43.5579 64.2217 41.61 60.3576 37.7143C56.4936 33.8186 54.5615 29.1152 54.5615 23.6042C54.5615 18.0932 56.4936 13.3899 60.3576 9.49419C64.2217 5.59849 68.8868 3.65063 74.3531 3.65063C79.8193 3.65063 84.5609 5.64748 88.8444 9.49419C88.8444 9.49419 90.9928 11.4896 92.5752 14.888H89.6647C87.4816 12.2942 86.4813 11.3529 86.4813 11.3529C83.1638 8.02729 79.0465 6.50115 74.3531 6.50115C69.6596 6.50115 65.6542 8.17345 62.3368 11.5181C59.0382 14.8437 57.3889 18.8724 57.3889 23.6042C57.3889 28.3361 59.0382 32.3743 62.3368 35.7189C65.6542 39.0445 69.6596 40.7073 74.3531 40.7073C79.0465 40.7073 83.0519 39.035 86.3693 35.6904C88.554 33.094 90.6056 29.1293 91.0301 25.0864Z" fill="#3A7F0D"/>
<path d="M114.992 40.7073C119.685 40.7073 123.681 39.0445 126.98 35.7189C130.297 32.3743 131.956 28.3361 131.956 23.6042C131.956 18.8724 130.297 14.8437 126.98 11.5181C123.681 8.17345 119.685 6.50115 114.992 6.50115C110.298 6.50115 106.293 8.17345 102.975 11.5181C99.6768 14.8437 98.0275 18.8724 98.0275 23.6042C98.0275 28.3361 99.6768 32.3743 102.975 35.7189C106.293 39.0445 110.298 40.7073 114.992 40.7073ZM114.992 43.5579C109.525 43.5579 104.86 41.61 100.996 37.7143C97.1322 33.8186 95.2001 29.1152 95.2001 23.6042C95.2001 18.0932 97.1322 13.3899 100.996 9.49419C104.86 5.59849 109.525 3.65063 114.992 3.65063C120.458 3.65063 125.123 5.59849 128.987 9.49419C132.851 13.3899 134.783 18.0932 134.783 23.6042C134.783 29.1152 132.851 33.8186 128.987 37.7143C125.123 41.61 120.458 43.5579 114.992 43.5579Z" fill="#49A010"/>
<path d="M36.9711 21.5682C36.568 17.9304 35.0361 14.7676 32.3753 12.08C29.2308 8.90372 25.4278 7.31558 20.9663 7.31558C16.5048 7.31558 12.7018 8.90372 9.55732 12.08C6.89656 14.7676 5.36462 17.9304 4.96147 21.5682H36.9711ZM4.96147 25.6403C5.36462 29.2781 6.89656 32.4408 9.55732 35.1285C12.7018 38.3048 16.5048 39.8929 20.9663 39.8929C25.4278 39.8929 29.2308 38.3048 32.3753 35.1285C33.9879 33.4996 35.1839 31.6943 35.9633 29.7125H40.2366C39.3228 32.7802 37.6565 35.5357 35.2376 37.979C31.2868 41.9697 26.5297 43.9651 20.9663 43.9651C15.4029 43.9651 10.6458 41.9833 6.69499 38.0197C2.77105 34.029 0.809082 29.2238 0.809082 23.6042C0.809082 17.9847 2.77105 13.1931 6.69499 9.22949C10.6458 5.23877 15.4029 3.24341 20.9663 3.24341C26.5297 3.24341 31.2734 5.23877 35.1973 9.22949C39.1481 13.1931 41.1235 17.9847 41.1235 23.6042C41.1235 24.2829 41.0967 24.9616 41.0429 25.6403H4.96147Z" fill="#49A010"/>
<path d="M14.6543 38.2902C14.6543 38.2902 18.9991 40.0612 21.9174 32.4714C23.5027 28.3472 27.566 25.1797 33.8428 28.9617C31.0372 29.275 24.8512 30.618 23.4396 36.3931C23.4396 36.3931 31.1851 29.9047 40.3089 29.4299C39.0817 34.1602 34.5235 39.5914 29.592 41.7059C22.1439 44.2454 14.6543 38.2902 14.6543 38.2902Z" fill="#3A7F0D"/>
<path d="M40.3089 29.4664C37.9589 35.4376 26.7137 40.922 20.1419 41.5217C16.8948 40.301 14.6543 38.493 14.6543 38.493C14.6543 38.493 19.0051 40.2965 21.9275 32.5671C23.5151 28.3671 27.584 25.1412 33.8696 28.9929C31.0601 29.3119 24.8654 30.6796 23.4518 36.561C23.4518 36.561 30.9374 27.863 40.3089 29.4664Z" fill="#49A010"/>
<path d="M126.324 0.80011C126.324 0.80011 130.049 9.86443 114.084 15.9529C105.408 19.2603 98.5889 24.8104 106.545 37.9055C107.203 32.0522 110.185 22.0735 122.333 19.1285C122.333 19.1285 108.835 23.5306 107.836 42.5655C109.01 42.9732 109.421 43.0969 110.36 43.3227C118.813 45.3559 127.095 42.823 133.509 31.9641C139.823 19.1285 126.324 0.80011 126.324 0.80011Z" fill="#3A7F0D"/>
<path d="M110.088 41.929C122.516 37.0756 131.499 25.6947 132.747 12.1221C130.207 5.41602 126.503 0.80011 126.503 0.80011C126.503 0.80011 130.257 9.78571 114.17 15.8213C105.429 19.1 98.5546 24.6152 106.571 37.5966C107.235 31.7941 110.242 21.8887 122.482 18.9693C122.482 18.9693 111.123 23.1276 110.088 41.929Z" fill="#49A010"/>
<path d="M95.894 10.5732C96.4563 10.5732 96.9121 10.0263 96.9121 9.35159C96.9121 8.6769 96.4563 8.12994 95.894 8.12994C95.3318 8.12994 94.876 8.6769 94.876 9.35159C94.876 10.0263 95.3318 10.5732 95.894 10.5732Z" fill="#3A7F0D"/>
<path d="M106.047 13.6895C106.499 13.6895 106.866 13.3231 106.866 12.871C106.866 12.4189 106.499 12.0524 106.047 12.0524C105.595 12.0524 105.229 12.4189 105.229 12.871C105.229 13.3231 105.595 13.6895 106.047 13.6895Z" fill="#49A010"/>
<path d="M102.307 4.69713C103.437 4.69713 104.353 3.78094 104.353 2.65075C104.353 1.52057 103.437 0.60437 102.307 0.60437C101.176 0.60437 100.26 1.52057 100.26 2.65075C100.26 3.78094 101.176 4.69713 102.307 4.69713Z" fill="#49A010"/>
<path d="M110.593 9.61001C110.955 9.61001 111.248 9.31682 111.248 8.95515C111.248 8.59348 110.955 8.30029 110.593 8.30029C110.232 8.30029 109.938 8.59348 109.938 8.95515C109.938 9.31682 110.232 9.61001 110.593 9.61001Z" fill="#49A010"/>
<path d="M116.835 11.4827C117.875 11.4827 118.718 10.6398 118.718 9.59997C118.718 8.56019 117.875 7.71729 116.835 7.71729C115.796 7.71729 114.953 8.56019 114.953 9.59997C114.953 10.6398 115.796 11.4827 116.835 11.4827Z" fill="#49A010"/>
<path d="M74.4141 21.5682H93.9605C93.9605 21.5682 93.9605 22.0957 93.9605 22.5482C93.9605 23.0007 93.9605 22.8054 93.9411 23.5769C93.9217 24.3484 93.8438 25.6403 93.8438 25.6403H74.4141V21.5682Z" fill="#3A7F0D"/>
<path d="M43.1597 21.5682H52.1184C52.1184 21.5682 52.1184 22.0957 52.1184 22.5482C52.1184 23.0007 52.1184 22.8054 52.1096 23.5769C52.1007 24.3484 52.072 25.6403 52.072 25.6403H43.1597V21.5682Z" fill="#3A7F0D"/>
</svg>
