<svg width="36" height="36" viewBox="0 0 36 36" fill="none" xmlns="http://www.w3.org/2000/svg">
<path d="M8.08334 19.0761C8.08334 17.1527 8.08334 16.1909 8.47216 15.3455C8.86098 14.5002 9.5912 13.8743 11.0516 12.6225L12.4683 11.4082C15.108 9.14558 16.4278 8.01428 18 8.01428C19.5722 8.01428 20.892 9.14558 23.5317 11.4082L24.9484 12.6225C26.4088 13.8743 27.139 14.5002 27.5279 15.3455C27.9167 16.1909 27.9167 17.1527 27.9167 19.0761V25.0834C27.9167 27.7547 27.9167 29.0903 27.0868 29.9202C26.2569 30.75 24.9213 30.75 22.25 30.75H13.75C11.0787 30.75 9.74307 30.75 8.91321 29.9202C8.08334 29.0903 8.08334 27.7547 8.08334 25.0834V19.0761Z" stroke="#CCCCCC" stroke-width="2.5"/>
<path d="M21.5417 30.75V23.25C21.5417 22.6977 21.094 22.25 20.5417 22.25H15.4583C14.9061 22.25 14.4583 22.6977 14.4583 23.25V30.75" stroke="#CCCCCC" stroke-width="2.5" stroke-linecap="round" stroke-linejoin="round"/>
</svg>
