<svg width="25" height="24" viewBox="0 0 25 24" fill="none" xmlns="http://www.w3.org/2000/svg">
<path fill-rule="evenodd" clip-rule="evenodd" d="M17.4229 10.2C17.0089 10.2 16.6729 9.86401 16.6729 9.45001V7.30301C16.6729 5.20701 14.9679 3.50201 12.8719 3.50201H12.8559C11.8429 3.50201 10.8939 3.89201 10.1769 4.60301C9.45488 5.31701 9.05588 6.27001 9.05188 7.28601V9.45001C9.05188 9.86401 8.71588 10.2 8.30188 10.2C7.88788 10.2 7.55188 9.86401 7.55188 9.45001V7.30301C7.55788 5.86301 8.11488 4.53401 9.11988 3.53801C10.1259 2.54101 11.4539 1.96401 12.8749 2.00201C15.7949 2.00201 18.1729 4.38001 18.1729 7.30301V9.45001C18.1729 9.86401 17.8369 10.2 17.4229 10.2Z" fill="#4AA18B"/>
<path fill-rule="evenodd" clip-rule="evenodd" d="M9.042 10.1288C7.364 10.1288 6 11.4928 6 13.1708V17.4598C6 19.1378 7.364 20.5018 9.042 20.5018H16.683C18.36 20.5018 19.725 19.1378 19.725 17.4598V13.1708C19.725 11.4928 18.36 10.1288 16.683 10.1288H9.042ZM16.683 22.0018H9.042C6.537 22.0018 4.5 19.9648 4.5 17.4598V13.1708C4.5 10.6658 6.537 8.62878 9.042 8.62878H16.683C19.188 8.62878 21.225 10.6658 21.225 13.1708V17.4598C21.225 19.9648 19.188 22.0018 16.683 22.0018Z" fill="#4AA18B"/>
<path fill-rule="evenodd" clip-rule="evenodd" d="M12.8623 17.1756C12.4483 17.1756 12.1123 16.8396 12.1123 16.4256V14.2046C12.1123 13.7906 12.4483 13.4546 12.8623 13.4546C13.2763 13.4546 13.6123 13.7906 13.6123 14.2046V16.4256C13.6123 16.8396 13.2763 17.1756 12.8623 17.1756Z" fill="#4AA18B"/>
</svg>
