<svg width="25" height="24" viewBox="0 0 25 24" fill="none" xmlns="http://www.w3.org/2000/svg">
<mask id="mask0_31_506" style="mask-type:luminance" maskUnits="userSpaceOnUse" x="4" y="14" width="17" height="8">
<path fill-rule="evenodd" clip-rule="evenodd" d="M4.5 14.4961H20.3399V21.8701H4.5V14.4961Z" fill="white"/>
</mask>
<g mask="url(#mask0_31_506)">
<path fill-rule="evenodd" clip-rule="evenodd" d="M12.4209 15.9961C8.15988 15.9961 5.99988 16.7281 5.99988 18.1731C5.99988 19.6311 8.15988 20.3701 12.4209 20.3701C16.6809 20.3701 18.8399 19.6381 18.8399 18.1931C18.8399 16.7351 16.6809 15.9961 12.4209 15.9961ZM12.4209 21.8701C10.4619 21.8701 4.49988 21.8701 4.49988 18.1731C4.49988 14.8771 9.02088 14.4961 12.4209 14.4961C14.3799 14.4961 20.3399 14.4961 20.3399 18.1931C20.3399 21.4891 15.8199 21.8701 12.4209 21.8701Z" fill="#4AA18B"/>
</g>
<mask id="mask1_31_506" style="mask-type:luminance" maskUnits="userSpaceOnUse" x="7" y="2" width="11" height="11">
<path fill-rule="evenodd" clip-rule="evenodd" d="M7.10986 2.00012H17.7299V12.6187H7.10986V2.00012Z" fill="white"/>
</mask>
<g mask="url(#mask1_31_506)">
<path fill-rule="evenodd" clip-rule="evenodd" d="M12.4209 3.42776C10.2799 3.42776 8.53789 5.16876 8.53789 7.30976C8.53089 9.44376 10.2599 11.1838 12.3919 11.1918L12.4209 11.9058V11.1918C14.5609 11.1918 16.3019 9.44976 16.3019 7.30976C16.3019 5.16876 14.5609 3.42776 12.4209 3.42776ZM12.4209 12.6188H12.3889C9.4669 12.6098 7.09989 10.2268 7.10989 7.30676C7.10989 4.38176 9.49189 1.99976 12.4209 1.99976C15.3489 1.99976 17.7299 4.38176 17.7299 7.30976C17.7299 10.2378 15.3489 12.6188 12.4209 12.6188Z" fill="#4AA18B"/>
</g>
</svg>
