<svg width="146" height="47" viewBox="0 0 146 47" fill="none" xmlns="http://www.w3.org/2000/svg">
<path d="M96.2212 26.482H99.0661C98.8648 30.1117 98.1597 33.5383 93.5395 39.1099C89.6755 43.0056 85.0103 44.9535 79.5441 44.9535C74.0779 44.9535 69.4127 43.0056 65.5487 39.1099C61.6846 35.2142 59.7526 30.5109 59.7526 24.9999C59.7526 19.4889 61.6846 14.7855 65.5487 10.8898C69.4127 6.99412 74.0779 5.04626 79.5441 5.04626C85.0103 5.04626 89.7519 7.04311 94.0354 10.8898C94.0354 10.8898 96.1838 12.8852 97.7663 16.2837H94.8558C92.6727 13.6898 91.6723 12.7485 91.6723 12.7485C88.3549 9.42292 84.2375 7.89678 79.5441 7.89678C74.8507 7.89678 70.8452 9.56908 67.5278 12.9137C64.2292 16.2393 62.5799 20.268 62.5799 24.9999C62.5799 29.7317 64.2292 33.77 67.5278 37.1146C70.8452 40.4402 74.8507 42.103 79.5441 42.103C84.2375 42.103 88.2429 40.4307 91.5604 37.0861C93.745 34.4896 95.7967 30.5249 96.2212 26.482Z" fill="#3A7F0D"/>
<path d="M120.183 42.103C124.876 42.103 128.872 40.4402 132.171 37.1146C135.488 33.77 137.147 29.7317 137.147 24.9999C137.147 20.268 135.488 16.2393 132.171 12.9137C128.872 9.56908 124.876 7.89678 120.183 7.89678C115.489 7.89678 111.484 9.56908 108.166 12.9137C104.868 16.2393 103.219 20.268 103.219 24.9999C103.219 29.7317 104.868 33.77 108.166 37.1146C111.484 40.4402 115.489 42.103 120.183 42.103ZM120.183 44.9535C114.716 44.9535 110.051 43.0056 106.187 39.1099C102.323 35.2142 100.391 30.5109 100.391 24.9999C100.391 19.4889 102.323 14.7855 106.187 10.8898C110.051 6.99412 114.716 5.04626 120.183 5.04626C125.649 5.04626 130.314 6.99412 134.178 10.8898C138.042 14.7855 139.974 19.4889 139.974 24.9999C139.974 30.5109 138.042 35.2142 134.178 39.1099C130.314 43.0056 125.649 44.9535 120.183 44.9535Z" fill="#49A010"/>
<path d="M42.1621 22.9638C41.7589 19.326 40.227 16.1633 37.5662 13.4756C34.4217 10.2994 30.6187 8.71121 26.1572 8.71121C21.6958 8.71121 17.8928 10.2994 14.7482 13.4756C12.0875 16.1633 10.5555 19.326 10.1524 22.9638H42.1621ZM10.1524 27.036C10.5555 30.6738 12.0875 33.8365 14.7482 36.5241C17.8928 39.7004 21.6958 41.2885 26.1572 41.2885C30.6187 41.2885 34.4217 39.7004 37.5662 36.5241C39.1788 34.8952 40.3748 33.0899 41.1542 31.1081H45.4275C44.5137 34.1758 42.8474 36.9313 40.4285 39.3746C36.4777 43.3653 31.7206 45.3607 26.1572 45.3607C20.5938 45.3607 15.8367 43.3789 11.8859 39.4153C7.96197 35.4246 6 30.6195 6 24.9999C6 19.3803 7.96197 14.5887 11.8859 10.6251C15.8367 6.6344 20.5938 4.63904 26.1572 4.63904C31.7206 4.63904 36.4643 6.6344 40.3882 10.6251C44.339 14.5887 46.3145 19.3803 46.3145 24.9999C46.3145 25.6786 46.2876 26.3573 46.2338 27.036H10.1524Z" fill="#49A010"/>
<path d="M19.8453 39.6859C19.8453 39.6859 24.1901 41.4568 27.1085 33.8671C28.6938 29.7429 32.7571 26.5754 39.0339 30.3574C36.2282 30.6707 30.0422 32.0137 28.6306 37.7888C28.6306 37.7888 36.3761 31.3004 45.5 30.8256C44.2728 35.5559 39.7145 40.987 34.783 43.1015C27.3349 45.6411 19.8453 39.6859 19.8453 39.6859Z" fill="#3A7F0D"/>
<path d="M45.5 30.8621C43.15 36.8333 31.9048 42.3177 25.3329 42.9174C22.0858 41.6967 19.8453 39.8887 19.8453 39.8887C19.8453 39.8887 24.1962 41.6922 27.1186 33.9628C28.7061 29.7628 32.7751 26.5369 39.0606 30.3886C36.2511 30.7076 30.0564 32.0753 28.6429 37.9566C28.6429 37.9566 36.1284 29.2587 45.5 30.8621Z" fill="#49A010"/>
<path d="M131.515 2.19574C131.515 2.19574 135.24 11.2601 119.274 17.3485C110.599 20.6559 103.78 26.206 111.735 39.3011C112.394 33.4478 115.376 23.4691 127.524 20.5241C127.524 20.5241 114.026 24.9262 113.027 43.9611C114.201 44.3689 114.611 44.4925 115.551 44.7184C124.004 46.7516 132.286 44.2186 138.7 33.3597C145.014 20.5241 131.515 2.19574 131.515 2.19574Z" fill="#3A7F0D"/>
<path d="M115.279 43.3246C127.707 38.4713 136.69 27.0903 137.938 13.5177C135.398 6.81165 131.694 2.19574 131.694 2.19574C131.694 2.19574 135.447 11.1813 119.361 17.2169C110.62 20.4956 103.745 26.0109 111.762 38.9922C112.425 33.1898 115.433 23.2844 127.673 20.365C127.673 20.365 116.314 24.5233 115.279 43.3246Z" fill="#49A010"/>
<path d="M101.085 11.9689C101.647 11.9689 102.103 11.422 102.103 10.7473C102.103 10.0726 101.647 9.52563 101.085 9.52563C100.523 9.52563 100.067 10.0726 100.067 10.7473C100.067 11.422 100.523 11.9689 101.085 11.9689Z" fill="#3A7F0D"/>
<path d="M111.238 15.0852C111.69 15.0852 112.057 14.7187 112.057 14.2666C112.057 13.8145 111.69 13.4481 111.238 13.4481C110.786 13.4481 110.42 13.8145 110.42 14.2666C110.42 14.7187 110.786 15.0852 111.238 15.0852Z" fill="#49A010"/>
<path d="M107.498 6.09276C108.628 6.09276 109.544 5.17657 109.544 4.04638C109.544 2.9162 108.628 2 107.498 2C106.367 2 105.451 2.9162 105.451 4.04638C105.451 5.17657 106.367 6.09276 107.498 6.09276Z" fill="#49A010"/>
<path d="M115.784 11.0056C116.146 11.0056 116.439 10.7125 116.439 10.3508C116.439 9.98911 116.146 9.69592 115.784 9.69592C115.423 9.69592 115.129 9.98911 115.129 10.3508C115.129 10.7125 115.423 11.0056 115.784 11.0056Z" fill="#49A010"/>
<path d="M122.026 12.8783C123.066 12.8783 123.909 12.0354 123.909 10.9956C123.909 9.95582 123.066 9.11292 122.026 9.11292C120.986 9.11292 120.143 9.95582 120.143 10.9956C120.143 12.0354 120.986 12.8783 122.026 12.8783Z" fill="#49A010"/>
<path d="M79.605 22.9638H99.1514C99.1514 22.9638 99.1514 23.4913 99.1514 23.9438C99.1514 24.3963 99.1514 24.201 99.132 24.9725C99.1126 25.744 99.0347 27.036 99.0347 27.036H79.605V22.9638Z" fill="#3A7F0D"/>
<path d="M48.3505 22.9638H57.3093C57.3093 22.9638 57.3093 23.4913 57.3093 23.9438C57.3093 24.3963 57.3093 24.201 57.3004 24.9725C57.2915 25.744 57.2629 27.036 57.2629 27.036H48.3505V22.9638Z" fill="#3A7F0D"/>
</svg>
