<svg width="30" height="30" viewBox="0 0 30 30" fill="none" xmlns="http://www.w3.org/2000/svg">
<path fill-rule="evenodd" clip-rule="evenodd" d="M2.5 15C2.5 8.09644 8.09644 2.5 15 2.5C21.9036 2.5 27.5 8.09644 27.5 15C27.5 18.8634 25.7473 22.3174 22.9937 24.6103C22.4433 23.0875 21.4671 21.7484 20.1745 20.7565C18.69 19.6174 16.8711 19 15 19C13.1289 19 11.31 19.6174 9.82553 20.7565C8.53292 21.7484 7.55674 23.0875 7.00626 24.6103C4.25267 22.3174 2.5 18.8634 2.5 15ZM18.957 22.3432C20.0906 23.2131 20.906 24.4322 21.277 25.8121C19.4323 26.8853 17.288 27.5 15 27.5C12.712 27.5 10.5677 26.8853 8.72299 25.8121C9.09403 24.4322 9.9094 23.2131 11.0431 22.3432C12.1782 21.4721 13.5691 21 15 21C16.4309 21 17.8218 21.4721 18.957 22.3432ZM12.25 11.25C12.25 9.73122 13.4812 8.5 15 8.5C16.5188 8.5 17.75 9.73122 17.75 11.25C17.75 12.7688 16.5188 14 15 14C13.4812 14 12.25 12.7688 12.25 11.25ZM15 6.5C12.3766 6.5 10.25 8.62665 10.25 11.25C10.25 13.8734 12.3766 16 15 16C17.6234 16 19.75 13.8734 19.75 11.25C19.75 8.62665 17.6234 6.5 15 6.5Z" fill="black"/>
</svg>
