<svg width="61" height="61" viewBox="0 0 61 61" fill="none" xmlns="http://www.w3.org/2000/svg">
<mask id="mask0_429_1685" style="mask-type:alpha" maskUnits="userSpaceOnUse" x="0" y="0" width="61" height="61">
<rect x="0.137695" y="0.209229" width="60.6425" height="60.3256" fill="#D9D9D9"/>
</mask>
<g mask="url(#mask0_429_1685)">
<path d="M5.19189 17.8038V5.23596H17.8257V10.2631H10.2454V17.8038H5.19189ZM5.19189 55.5073V42.9394H10.2454V50.4801H17.8257V55.5073H5.19189ZM43.0934 55.5073V50.4801H50.6737V42.9394H55.7273V55.5073H43.0934ZM50.6737 17.8038V10.2631H43.0934V5.23596H55.7273V17.8038H50.6737ZM44.3568 44.1962H48.147V47.9666H44.3568V44.1962ZM44.3568 36.6555H48.147V40.4259H44.3568V36.6555ZM40.5667 40.4259H44.3568V44.1962H40.5667V40.4259ZM36.7765 44.1962H40.5667V47.9666H36.7765V44.1962ZM32.9864 40.4259H36.7765V44.1962H32.9864V40.4259ZM40.5667 32.8852H44.3568V36.6555H40.5667V32.8852ZM36.7765 36.6555H40.5667V40.4259H36.7765V36.6555ZM32.9864 32.8852H36.7765V36.6555H32.9864V32.8852ZM48.147 12.7767V27.858H32.9864V12.7767H48.147ZM27.9328 32.8852V47.9666H12.7722V32.8852H27.9328ZM27.9328 12.7767V27.858H12.7722V12.7767H27.9328ZM24.1427 44.1962V36.6555H16.5624V44.1962H24.1427ZM24.1427 24.0877V16.547H16.5624V24.0877H24.1427ZM44.3568 24.0877V16.547H36.7765V24.0877H44.3568Z" fill="#1C1B1F"/>
</g>
</svg>
