<svg width="25" height="25" viewBox="0 0 25 25" fill="none" xmlns="http://www.w3.org/2000/svg">
<path fill-rule="evenodd" clip-rule="evenodd" d="M12.5 0C5.59644 0 0 5.59644 0 12.5C0 19.4036 5.59644 25 12.5 25C19.4036 25 25 19.4036 25 12.5C25 5.59644 19.4036 0 12.5 0ZM7.5313 17.7069C8.83754 19.5039 10.4938 20.655 12.5001 21.1602C14.5063 20.655 16.1626 19.5039 17.4688 17.7069C18.7751 15.91 19.4282 13.9145 19.4282 11.7206V6.43792L12.5001 3.83987L5.57194 6.43792V11.7206C5.57194 13.9145 6.22506 15.91 7.5313 17.7069ZM16.2239 16.4837C15.2424 17.9126 14.0012 18.8652 12.5001 19.3416C10.999 18.8652 9.75768 17.9126 8.77619 16.4837C7.79471 15.0548 7.30397 13.4671 7.30397 11.7206V7.62869L12.5001 5.68016L17.6962 7.62869V11.7206C17.6962 13.4671 17.2054 15.0548 16.2239 16.4837Z" fill="black"/>
</svg>
