<svg width="116" height="47" viewBox="0 0 116 47" fill="none" xmlns="http://www.w3.org/2000/svg">
<g filter="url(#filter0_d_607_939)">
<rect x="4.3877" y="0.0864258" width="107.11" height="37.944" rx="5" fill="white"/>
</g>
<mask id="mask0_607_939" style="mask-type:alpha" maskUnits="userSpaceOnUse" x="11" y="4" width="29" height="30">
<rect x="11.2837" y="4.82312" width="28.4709" height="28.4709" fill="#D9D9D9"/>
</mask>
<g mask="url(#mask0_607_939)">
<path d="M33.4075 15.9741L34.2972 15.0844L32.0432 12.8897V9.56813H30.8569V13.3643L33.4075 15.9741ZM16.0283 30.9213C15.6922 30.9213 15.4105 30.8076 15.1831 30.5803C14.9557 30.3529 14.8421 30.0711 14.8421 29.735V27.3031C14.4466 26.8879 14.15 26.4283 13.9523 25.9241C13.7546 25.4199 13.6558 24.9108 13.6558 24.3967V13.127C13.6558 11.3673 14.4713 10.1366 16.1025 9.43468C17.7336 8.73279 20.5857 8.38184 24.6586 8.38184C24.4016 8.73773 24.1791 9.11339 23.9913 9.50882C23.8035 9.90425 23.6404 10.3096 23.502 10.7248C21.4853 10.7643 19.9283 10.8829 18.8309 11.0807C17.7336 11.2784 16.9774 11.5651 16.5622 11.9407H23.235C23.1757 12.3361 23.1461 12.7316 23.1461 13.127C23.1461 13.5224 23.1757 13.9179 23.235 14.3133H16.0283V17.8722H24.6586C24.9947 18.3467 25.3704 18.7866 25.7856 19.1919C26.2008 19.5972 26.6654 19.9482 27.1795 20.2447H16.0283V23.8036C16.0283 24.4561 16.2607 25.0146 16.7253 25.4792C17.1899 25.9439 17.7485 26.1762 18.4009 26.1762H27.8912C28.5437 26.1762 29.1022 25.9439 29.5669 25.4792C30.0315 25.0146 30.2638 24.4561 30.2638 23.8036V21.342C30.6592 21.4014 31.0547 21.431 31.4501 21.431C31.8455 21.431 32.2409 21.4014 32.6364 21.342V24.3967C32.6364 24.9108 32.5375 25.4199 32.3398 25.9241C32.1421 26.4283 31.8455 26.8879 31.4501 27.3031V29.735C31.4501 30.0711 31.3364 30.3529 31.109 30.5803C30.8817 30.8076 30.5999 30.9213 30.2638 30.9213H29.0775C28.7414 30.9213 28.4597 30.8076 28.2323 30.5803C28.0049 30.3529 27.8912 30.0711 27.8912 29.735V28.5487H18.4009V29.735C18.4009 30.0711 18.2872 30.3529 18.0599 30.5803C17.8325 30.8076 17.5507 30.9213 17.2146 30.9213H16.0283ZM31.4501 19.0584C29.8091 19.0584 28.4102 18.4801 27.2536 17.3235C26.097 16.1669 25.5186 14.768 25.5186 13.127C25.5186 11.5057 26.092 10.1118 27.2388 8.94533C28.3855 7.77882 29.7893 7.19556 31.4501 7.19556C33.0911 7.19556 34.49 7.77387 35.6466 8.9305C36.8032 10.0871 37.3815 11.486 37.3815 13.127C37.3815 14.768 36.8032 16.1669 35.6466 17.3235C34.49 18.4801 33.0911 19.0584 31.4501 19.0584ZM18.9941 24.9899C19.4883 24.9899 19.9085 24.8169 20.2545 24.4709C20.6005 24.1249 20.7735 23.7047 20.7735 23.2104C20.7735 22.7162 20.6005 22.296 20.2545 21.95C19.9085 21.604 19.4883 21.431 18.9941 21.431C18.4998 21.431 18.0796 21.604 17.7336 21.95C17.3876 22.296 17.2146 22.7162 17.2146 23.2104C17.2146 23.7047 17.3876 24.1249 17.7336 24.4709C18.0796 24.8169 18.4998 24.9899 18.9941 24.9899ZM27.2981 24.9899C27.7924 24.9899 28.2125 24.8169 28.5585 24.4709C28.9045 24.1249 29.0775 23.7047 29.0775 23.2104C29.0775 22.7162 28.9045 22.296 28.5585 21.95C28.2125 21.604 27.7924 21.431 27.2981 21.431C26.8038 21.431 26.3836 21.604 26.0376 21.95C25.6916 22.296 25.5186 22.7162 25.5186 23.2104C25.5186 23.7047 25.6916 24.1249 26.0376 24.4709C26.3836 24.8169 26.8038 24.9899 27.2981 24.9899Z" fill="black"/>
</g>
<defs>
<filter id="filter0_d_607_939" x="0.387695" y="0.0864258" width="115.11" height="45.944" filterUnits="userSpaceOnUse" color-interpolation-filters="sRGB">
<feFlood flood-opacity="0" result="BackgroundImageFix"/>
<feColorMatrix in="SourceAlpha" type="matrix" values="0 0 0 0 0 0 0 0 0 0 0 0 0 0 0 0 0 0 127 0" result="hardAlpha"/>
<feOffset dy="4"/>
<feGaussianBlur stdDeviation="2"/>
<feComposite in2="hardAlpha" operator="out"/>
<feColorMatrix type="matrix" values="0 0 0 0 0 0 0 0 0 0 0 0 0 0 0 0 0 0 0.25 0"/>
<feBlend mode="normal" in2="BackgroundImageFix" result="effect1_dropShadow_607_939"/>
<feBlend mode="normal" in="SourceGraphic" in2="effect1_dropShadow_607_939" result="shape"/>
</filter>
</defs>
</svg>
