<svg width="80" height="43" viewBox="0 0 80 43" fill="none" xmlns="http://www.w3.org/2000/svg">
<mask id="mask0_609_940" style="mask-type:alpha" maskUnits="userSpaceOnUse" x="0" y="0" width="43" height="43">
<rect x="42.7554" y="0.796875" width="42.1751" height="42.1751" transform="rotate(90 42.7554 0.796875)" fill="#D9D9D9"/>
</mask>
<g mask="url(#mask0_609_940)">
<path d="M4.09477 21.8848L16.3959 9.58374L18.9 12.044L10.8164 20.1275L23.425 20.1275L23.425 23.6421L10.8164 23.6421L18.8561 31.7257L16.3959 34.1859L4.09477 21.8848ZM26.9396 20.1275L32.2115 20.1275L32.2115 23.6421L26.9396 23.6421L26.9396 20.1275ZM35.7261 20.1275L39.2407 20.1275L39.2407 23.6421L35.7261 23.6421L35.7261 20.1275Z" fill="black"/>
</g>
<mask id="mask1_609_940" style="mask-type:alpha" maskUnits="userSpaceOnUse" x="45" y="4" width="35" height="35">
<rect x="45.5225" y="4.84204" width="34.0852" height="34.0852" fill="#D9D9D9"/>
</mask>
<g mask="url(#mask1_609_940)">
<path d="M54.0436 34.6665C53.6412 34.6665 53.3039 34.5304 53.0317 34.2582C52.7594 33.9859 52.6233 33.6486 52.6233 33.2463V30.3348C52.1973 29.8614 51.8541 29.3347 51.5937 28.7548C51.3333 28.1749 51.2031 27.5417 51.2031 26.8553V13.3632C51.2031 11.3986 52.1144 9.96064 53.937 9.04933C55.7597 8.13803 58.6356 7.68237 62.5648 7.68237C66.6361 7.68237 69.5476 8.12027 71.2992 8.99607C73.0508 9.87187 73.9266 11.3276 73.9266 13.3632V26.8553C73.9266 27.5417 73.7964 28.1749 73.536 28.7548C73.2756 29.3347 72.9324 29.8614 72.5064 30.3348V33.2463C72.5064 33.6486 72.3703 33.9859 72.098 34.2582C71.8258 34.5304 71.4885 34.6665 71.0861 34.6665H69.6659C69.2635 34.6665 68.9262 34.5304 68.654 34.2582C68.3818 33.9859 68.2457 33.6486 68.2457 33.2463V31.826H56.884V33.2463C56.884 33.6486 56.7479 33.9859 56.4757 34.2582C56.2035 34.5304 55.8662 34.6665 55.4638 34.6665H54.0436ZM54.0436 19.0441H71.0861V14.7835H54.0436V19.0441ZM57.5941 27.5654C58.1859 27.5654 58.6888 27.3583 59.1031 26.944C59.5173 26.5298 59.7244 26.0268 59.7244 25.4351C59.7244 24.8433 59.5173 24.3403 59.1031 23.9261C58.6888 23.5119 58.1859 23.3047 57.5941 23.3047C57.0023 23.3047 56.4993 23.5119 56.0851 23.9261C55.6709 24.3403 55.4638 24.8433 55.4638 25.4351C55.4638 26.0268 55.6709 26.5298 56.0851 26.944C56.4993 27.3583 57.0023 27.5654 57.5941 27.5654ZM67.5356 27.5654C68.1274 27.5654 68.6304 27.3583 69.0446 26.944C69.4588 26.5298 69.6659 26.0268 69.6659 25.4351C69.6659 24.8433 69.4588 24.3403 69.0446 23.9261C68.6304 23.5119 68.1274 23.3047 67.5356 23.3047C66.9438 23.3047 66.4409 23.5119 66.0266 23.9261C65.6124 24.3403 65.4053 24.8433 65.4053 25.4351C65.4053 26.0268 65.6124 26.5298 66.0266 26.944C66.4409 27.3583 66.9438 27.5654 67.5356 27.5654ZM54.6827 11.943H70.5891C70.234 11.5406 69.4706 11.2033 68.299 10.9311C67.1273 10.6589 65.2396 10.5228 62.6359 10.5228C60.1031 10.5228 58.2509 10.6707 57.0793 10.9666C55.9076 11.2625 55.1087 11.588 54.6827 11.943ZM56.884 28.9856H68.2457C69.0268 28.9856 69.6955 28.7075 70.2518 28.1512C70.808 27.595 71.0861 26.9263 71.0861 26.1452V21.8845H54.0436V26.1452C54.0436 26.9263 54.3217 27.595 54.8779 28.1512C55.4342 28.7075 56.1029 28.9856 56.884 28.9856Z" fill="black"/>
</g>
</svg>
